<?xml version="1.0" encoding="UTF-8"?>
<svg id="Layer_1" data-name="Layer 1" xmlns="http://www.w3.org/2000/svg" viewBox="0 0 1169.29 903">
  <defs>
    <style>
      .cls-1 {
        font-size: 69.55px;
      }

      .cls-1, .cls-2 {
        font-family: FranklinGothic-MediumCond, 'Franklin Gothic Medium Cond';
        font-weight: 500;
      }

      .cls-3 {
        fill: #8ac0c8;
        stroke: #8ac0c8;
      }

      .cls-3, .cls-4, .cls-5, .cls-6, .cls-7, .cls-8, .cls-9 {
        stroke-miterlimit: 10;
      }

      .cls-3, .cls-7, .cls-9 {
        stroke-width: 12px;
      }

      .cls-10, .cls-11 {
        stroke-width: 0px;
      }

      .cls-4 {
        stroke-width: 6px;
      }

      .cls-4, .cls-5 {
        fill: none;
      }

      .cls-4, .cls-5, .cls-6, .cls-8, .cls-9 {
        stroke: #000;
      }

      .cls-2 {
        font-size: 69.55px;
      }

      .cls-5 {
        stroke-width: 18px;
      }

      .cls-11, .cls-6, .cls-7, .cls-8 {
        fill: #fff;
      }

      .cls-6 {
        stroke-width: 4px;
      }

      .cls-7 {
        stroke: #fff;
      }

      .cls-8 {
        stroke-width: 2px;
      }
    </style>
  </defs>
  <rect class="cls-7" x="272.29" y="6" width="891" height="891"/>
  <text class="cls-2" transform="translate(422.22 460.93) rotate(-88.81)"><tspan x="0" y="0"> </tspan></text>
  <text class="cls-2" transform="translate(422.47 448.4) rotate(-86.47)"><tspan x="0" y="0"> </tspan></text>
  <text class="cls-2" transform="translate(423.23 435.91) rotate(-84.12)"><tspan x="0" y="0"> </tspan></text>
  <text class="cls-2" transform="translate(424.51 423.44) rotate(-81.75)"><tspan x="0" y="0"> </tspan></text>
  <text class="cls-2" transform="translate(426.29 411.06) rotate(-79.38)"><tspan x="0" y="0"> </tspan></text>
  <text class="cls-2" transform="translate(428.59 398.75) rotate(-77)"><tspan x="0" y="0"> </tspan></text>
  <text class="cls-2" transform="translate(430.85 386.85) rotate(-72.55)"><tspan x="0" y="0">#</tspan></text>
  <text class="cls-2" transform="translate(440.99 354.11) rotate(-65.81)"><tspan x="0" y="0">H</tspan></text>
  <text class="cls-2" transform="translate(456.03 320.71) rotate(-59.21)"><tspan x="0" y="0">A</tspan></text>
  <text class="cls-2" transform="translate(472.43 292.84) rotate(-52.9)"><tspan x="0" y="0">C</tspan></text>
  <text class="cls-2" transform="translate(493.81 264.5) rotate(-46.35)"><tspan x="0" y="0">K</tspan></text>
  <text class="cls-2" transform="translate(517.98 239.68) rotate(-41.64)"><tspan x="0" y="0">I</tspan></text>
  <text class="cls-2" transform="translate(529.36 228.93) rotate(-36.81)"><tspan x="0" y="0">C</tspan></text>
  <text class="cls-2" transform="translate(557.95 207.54) rotate(-30.32)"><tspan x="0" y="0">A</tspan></text>
  <text class="cls-2" transform="translate(586.54 190.7) rotate(-23.95)"><tspan x="0" y="0">2</tspan></text>
  <text class="cls-2" transform="translate(616.03 177.41) rotate(-17.82)"><tspan x="0" y="0">4</tspan></text>
  <text class="cls-2" transform="translate(649.18 167.18) rotate(-13.38)"><tspan x="0" y="0"> </tspan></text>
  <text class="cls-2" transform="translate(661.33 164.28) rotate(-11.01)"><tspan x="0" y="0"> </tspan></text>
  <text class="cls-2" transform="translate(673.64 161.88) rotate(-8.64)"><tspan x="0" y="0"> </tspan></text>
  <text class="cls-2" transform="translate(686.01 159.99) rotate(-6.29)"><tspan x="0" y="0"> </tspan></text>
  <text class="cls-2" transform="translate(698.45 158.61) rotate(-3.94)"><tspan x="0" y="0"> </tspan></text>
  <text class="cls-2" transform="translate(710.94 157.74) rotate(-1.61)"><tspan x="0" y="0"> </tspan></text>
  <text class="cls-2" transform="translate(723.38 157.35) rotate(.93)"><tspan x="0" y="0"> </tspan></text>
  <text class="cls-2" transform="translate(735.98 157.52) rotate(3.02)"><tspan x="0" y="0"> </tspan></text>
  <text class="cls-2" transform="translate(748.49 158.17) rotate(5.36)"><tspan x="0" y="0"> </tspan></text>
  <text class="cls-2" transform="translate(760.95 159.33) rotate(7.71)"><tspan x="0" y="0"> </tspan></text>
  <text class="cls-2" transform="translate(773.36 161) rotate(10.07)"><tspan x="0" y="0"> </tspan></text>
  <text class="cls-2" transform="translate(785.69 163.18) rotate(12.44)"><tspan x="0" y="0"> </tspan></text>
  <text class="cls-2" transform="translate(797.9 165.86) rotate(14.81)"><tspan x="0" y="0"> </tspan></text>
  <text class="cls-2" transform="translate(809.99 169.05) rotate(17.19)"><tspan x="0" y="0"> </tspan></text>
  <text class="cls-2" transform="translate(821.96 172.74) rotate(19.56)"><tspan x="0" y="0"> </tspan></text>
  <text class="cls-2" transform="translate(833.74 176.92) rotate(21.94)"><tspan x="0" y="0"> </tspan></text>
  <text class="cls-2" transform="translate(845.36 181.59) rotate(24.31)"><tspan x="0" y="0"> </tspan></text>
  <text class="cls-2" transform="translate(856.78 186.74) rotate(26.68)"><tspan x="0" y="0"> </tspan></text>
  <text class="cls-2" transform="translate(867.95 192.34) rotate(29.04)"><tspan x="0" y="0"> </tspan></text>
  <text class="cls-2" transform="translate(878.9 198.41) rotate(31.4)"><tspan x="0" y="0"> </tspan></text>
  <text class="cls-2" transform="translate(889.6 204.93) rotate(33.76)"><tspan x="0" y="0"> </tspan></text>
  <text class="cls-2" transform="translate(900 211.87) rotate(36.11)"><tspan x="0" y="0"> </tspan></text>
  <text class="cls-2" transform="translate(910.12 219.24) rotate(38.46)"><tspan x="0" y="0"> </tspan></text>
  <text class="cls-2" transform="translate(919.94 227.03) rotate(40.82)"><tspan x="0" y="0"> </tspan></text>
  <text class="cls-2" transform="translate(929.41 235.19) rotate(43.16)"><tspan x="0" y="0"> </tspan></text>
  <text class="cls-2" transform="translate(938.55 243.75) rotate(45.51)"><tspan x="0" y="0"> </tspan></text>
  <text class="cls-2" transform="translate(947.34 252.68) rotate(47.86)"><tspan x="0" y="0"> </tspan></text>
  <text class="cls-2" transform="translate(955.73 261.94) rotate(50.2)"><tspan x="0" y="0"> </tspan></text>
  <text class="cls-2" transform="translate(963.76 271.57) rotate(52.56)"><tspan x="0" y="0"> </tspan></text>
  <text class="cls-2" transform="translate(971.38 281.5) rotate(54.91)"><tspan x="0" y="0"> </tspan></text>
  <text class="cls-2" transform="translate(978.58 291.73) rotate(57.27)"><tspan x="0" y="0"> </tspan></text>
  <text class="cls-2" transform="translate(985.35 302.24) rotate(59.63)"><tspan x="0" y="0"> </tspan></text>
  <text class="cls-2" transform="translate(991.69 313.04) rotate(62)"><tspan x="0" y="0"> </tspan></text>
  <text class="cls-2" transform="translate(997.57 324.08) rotate(64.37)"><tspan x="0" y="0"> </tspan></text>
  <text class="cls-2" transform="translate(1003 335.38) rotate(66.75)"><tspan x="0" y="0"> </tspan></text>
  <text class="cls-2" transform="translate(1007.94 346.85) rotate(69.13)"><tspan x="0" y="0"> </tspan></text>
  <text class="cls-2" transform="translate(1012.41 358.54) rotate(71.51)"><tspan x="0" y="0"> </tspan></text>
  <text class="cls-2" transform="translate(1016.38 370.4) rotate(73.89)"><tspan x="0" y="0"> </tspan></text>
  <text class="cls-2" transform="translate(1019.86 382.42) rotate(76.28)"><tspan x="0" y="0"> </tspan></text>
  <text class="cls-2" transform="translate(1022.84 394.58) rotate(78.66)"><tspan x="0" y="0"> </tspan></text>
  <text class="cls-2" transform="translate(1025.31 406.85) rotate(81.03)"><tspan x="0" y="0"> </tspan></text>
  <text class="cls-2" transform="translate(1027.27 419.21) rotate(83.4)"><tspan x="0" y="0"> </tspan></text>
  <text class="cls-2" transform="translate(1028.72 431.64) rotate(85.76)"><tspan x="0" y="0"> </tspan></text>
  <text class="cls-2" transform="translate(1029.66 444.13) rotate(88.1)"><tspan x="0" y="0"> </tspan></text>
  <text class="cls-2" transform="translate(1030.14 456.51) rotate(90.93)"><tspan x="0" y="0"> </tspan></text>
  <text class="cls-2" transform="translate(1030 469.17) rotate(92.75)"><tspan x="0" y="0"> </tspan></text>
  <text class="cls-2" transform="translate(1029.41 481.67) rotate(95.1)"><tspan x="0" y="0"> </tspan></text>
  <text class="cls-2" transform="translate(1028.31 494.13) rotate(97.46)"><tspan x="0" y="0"> </tspan></text>
  <text class="cls-2" transform="translate(1026.69 506.53) rotate(99.83)"><tspan x="0" y="0"> </tspan></text>
  <text class="cls-2" transform="translate(1024.57 518.87) rotate(102.2)"><tspan x="0" y="0"> </tspan></text>
  <text class="cls-2" transform="translate(1021.93 531.11) rotate(104.59)"><tspan x="0" y="0"> </tspan></text>
  <text class="cls-2" transform="translate(1018.79 543.2) rotate(106.97)"><tspan x="0" y="0"> </tspan></text>
  <text class="cls-2" transform="translate(1015.15 555.18) rotate(109.35)"><tspan x="0" y="0"> </tspan></text>
  <text class="cls-2" transform="translate(1011.01 567) rotate(111.74)"><tspan x="0" y="0"> </tspan></text>
  <text class="cls-2" transform="translate(1006.38 578.62) rotate(114.11)"><tspan x="0" y="0"> </tspan></text>
  <text class="cls-2" transform="translate(1001.28 590.05) rotate(116.49)"><tspan x="0" y="0"> </tspan></text>
  <text class="cls-2" transform="translate(995.7 601.26) rotate(118.86)"><tspan x="0" y="0"> </tspan></text>
  <text class="cls-2" transform="translate(989.67 612.23) rotate(121.23)"><tspan x="0" y="0"> </tspan></text>
  <text class="cls-2" transform="translate(983.2 622.91) rotate(123.59)"><tspan x="0" y="0"> </tspan></text>
  <text class="cls-2" transform="translate(976.28 633.36) rotate(125.95)"><tspan x="0" y="0"> </tspan></text>
  <text class="cls-2" transform="translate(968.94 643.5) rotate(128.3)"><tspan x="0" y="0"> </tspan></text>
  <text class="cls-2" transform="translate(961.2 653.31) rotate(130.65)"><tspan x="0" y="0"> </tspan></text>
  <text class="cls-2" transform="translate(953.04 662.83) rotate(133)"><tspan x="0" y="0"> </tspan></text>
  <text class="cls-2" transform="translate(944.51 671.99) rotate(135.35)"><tspan x="0" y="0"> </tspan></text>
  <text class="cls-2" transform="translate(935.61 680.8) rotate(137.69)"><tspan x="0" y="0"> </tspan></text>
  <text class="cls-2" transform="translate(926.37 689.22) rotate(140.04)"><tspan x="0" y="0"> </tspan></text>
  <ellipse class="cls-3" cx="715.29" cy="450" rx="252.5" ry="249"/>
  <path class="cls-9" d="m523.17,726c11.67-12.55,27.08-29.03,27.12-29,.09.07-63.91,69.07-64,69-.05-.04,18.63-20.36,36.88-40Z"/>
  <text class="cls-1" transform="translate(649.75 781.62) rotate(6.79) scale(1.02 1)"><tspan x="0" y="0"> </tspan></text>
  <text class="cls-1" transform="translate(664.02 783.3) rotate(4.56) scale(1.02 1)"><tspan x="0" y="0"> </tspan></text>
  <text class="cls-1" transform="translate(678.39 784.42) rotate(2.33) scale(1.02 1)"><tspan x="0" y="0"> </tspan></text>
  <text class="cls-1" transform="translate(692.95 784.9) rotate(.91) scale(1.02 1)"><tspan x="0" y="0"> </tspan></text>
  <text class="cls-1" transform="translate(706.99 785) rotate(-2.07) scale(1.02 1)"><tspan x="0" y="0"> </tspan></text>
  <text class="cls-1" transform="translate(721.37 784.46) rotate(-4.29) scale(1.02 1)"><tspan x="0" y="0"> </tspan></text>
  <text class="cls-1" transform="translate(735.71 783.36) rotate(-6.53) scale(1.02 1)"><tspan x="0" y="0"> </tspan></text>
  <text class="cls-1" transform="translate(750.02 781.7) rotate(-8.78) scale(1.02 1)"><tspan x="0" y="0"> </tspan></text>
  <text class="cls-1" transform="translate(764.25 779.48) rotate(-11.05) scale(1.02 1)"><tspan x="0" y="0"> </tspan></text>
  <text class="cls-1" transform="translate(778.4 776.69) rotate(-13.32) scale(1.02 1)"><tspan x="0" y="0"> </tspan></text>
  <text class="cls-1" transform="translate(792.42 773.35) rotate(-15.6) scale(1.02 1)"><tspan x="0" y="0"> </tspan></text>
  <text class="cls-1" transform="translate(807.6 769.57) rotate(-20.18) scale(1.02 1)"><tspan x="0" y="0">G</tspan></text>
  <text class="cls-1" transform="translate(848.37 754.36) rotate(-27.08) scale(1.02 1)"><tspan x="0" y="0">O</tspan></text>
  <text class="cls-1" transform="translate(886.46 734.38) rotate(-33.04) scale(1.02 1)"><tspan x="0" y="0">L</tspan></text>
  <text class="cls-1" transform="translate(913.45 716.97) rotate(-39.01) scale(1.02 1)"><tspan x="0" y="0">D</tspan></text>
  <text class="cls-1" transform="translate(945.91 689.86) rotate(-43.63) scale(1.02 1)"><tspan x="0" y="0"> </tspan></text>
  <text class="cls-1" transform="translate(957.41 679.42) rotate(-48.06) scale(1.02 1)"><tspan x="0" y="0">C</tspan></text>
  <text class="cls-1" transform="translate(984.75 648.79) rotate(-54.89) scale(1.02 1)"><tspan x="0" y="0">O</tspan></text>
  <text class="cls-1" transform="translate(1009.05 613.73) rotate(-61.46) scale(1.02 1)"><tspan x="0" y="0">A</tspan></text>
  <text class="cls-1" transform="translate(1027.27 579.92) rotate(-67.9) scale(1.02 1)"><tspan x="0" y="0">S</tspan></text>
  <text class="cls-1" transform="translate(1042 542.43) rotate(-73.8) scale(1.02 1)"><tspan x="0" y="0">T</tspan></text>
  <g>
    <g>
      <polygon class="cls-6" points="964.17 134.73 512.55 569.87 576.5 635.62 919.87 301.6 918.94 183.61 964.17 134.73"/>
      <polygon class="cls-6" points="530.13 584.16 866.27 257.16 882.78 349.28 584.19 639.74 557.16 611.95 530.13 584.16"/>
      <polygon class="cls-6" points="832.47 351.43 556.13 614.67 584.97 644.33 838.2 397.48 832.47 351.43"/>
      <polyline class="cls-8" points="860.17 240.22 918.94 183.61 919.02 192.96 865.16 245.35 871.61 251.98 919.12 205.76 919.2 215.81 876.67 257.18 882 262.66 919.28 226.4 919.36 236.72 887.2 268.01 894.11 275.11 919.47 250.43 919.55 261.14 899.5 280.65 905.34 286.65 919.65 272.73 919.72 281.99 910 291.44 913.92 295.48 919.78 289.77 919.87 301.6 857.63 237.62"/>
      <polyline class="cls-8" points="833.15 356.88 772.91 415.48 779.83 417.37 834.11 364.57 835.27 373.89 788.22 419.65 797.3 420.84 836.38 382.82 837.26 389.93 802.66 423.58 809.51 425.45 766.94 413.86"/>
      <line class="cls-8" x1="896.85" y1="199.59" x2="903.94" y2="286.77"/>
      <polyline class="cls-8" points="874.26 301.72 878.68 297.41 882.55 301.39 875.44 308.31 876.57 314.64 886.26 305.21 890.81 309.88 877.96 322.39 879.48 330.88 895.8 315.01 900.8 320.15 881.01 339.41 882.78 349.28 906.59 326.11 875.03 293.66"/>
      <line class="cls-8" x1="594" y1="491.39" x2="595.71" y2="520.36"/>
      <line class="cls-6" x1="581.58" y1="590.43" x2="637.65" y2="593.08"/>
      <polyline class="cls-8" points="558.25 616.86 585.25 590.6 592.53 590.95 561.97 620.68 566.52 625.35 601.45 591.37 611.22 591.83 570.55 629.5 574.26 633.31 616.63 592.09 626.38 592.55 579.23 638.42"/>
    </g>
    <g>
      <path class="cls-11" d="m733.39,468.07s15.45,49.83,9.91,75.56c-3.34,15.49-8.26,26.08-17.34,42.53-3.53,6.39-19.87,35.91-52.05,65.23-5.7,5.19-8.74-18.93-11.64-52.21-2.35-26.9-1.5-52.01-1.5-52.01l72.63-79.11Z"/>
      <path class="cls-10" d="m733.59,467.2c.61.37.87,1.16,1.05,1.79,0,0,.38,1.18.38,1.18,5.21,16.54,9.43,33.5,11.34,50.77.38,4.01.65,8.59.61,12.58-.08,1.29-.16,3.82-.24,5.1-2.54,22.7-13.71,43.23-25.55,62.35-12.46,19.86-27.52,38.06-44.6,54.11-2.57,2.24-6.49,2.07-8.87-.46-2.13-2.19-3.21-5.58-3.97-8.12-1.89-6.72-2.83-13.26-3.8-20.04-3.71-27.08-5.77-54.21-4.99-81.61,6.68-7.52,14.03-14.55,21.4-21.34,19.28-18.51,38.99-37.63,57.24-56.32h0Zm-.39,1.75c-18.08,20.86-34.81,41.26-51.7,62.35-5.29,6.84-10.51,13.59-16.41,19.86,0,0,1.54-3.77,1.54-3.77-.58,19.43,0,38.94,1.58,58.37,1.11,12.76,1.86,25.81,4.64,38.25.4,1.65.92,3.16,1.45,4.18-.84-.81-2.54-.88-3.42-.2-.12.13.11-.08.25-.21,11.96-10.58,22.95-22.23,32.81-34.83,8.03-10.23,15.18-20.96,21.23-32.5,7.65-14.04,14.94-28.65,16.53-44.73.72-7.88.16-16.25-.72-24.1-1.58-13.78-4.38-27.45-7.81-40.9,0,0-.31-1.19-.31-1.19,0,0-.16-.59-.16-.59-.01-.03.05.07.15.09.1.03.24,0,.35-.07h0Z"/>
    </g>
    <g>
      <path class="cls-11" d="m682.88,421.44s-49.43-16.68-75.3-11.77c-15.57,2.95-26.28,7.61-42.95,16.29-6.47,3.37-36.39,18.98-66.5,50.42-5.33,5.57,18.71,9.2,51.91,12.93,26.83,3.01,51.95,2.78,51.95,2.78l80.88-70.65Z"/>
      <path class="cls-10" d="m681.31,421.75c-.14.37.19.95.48,1.03-.24-.06-1.46-.44-1.76-.52-14.87-4.2-30.04-7.77-45.38-9.62-8.56-.97-17.59-1.51-26.1-.03-13.54,2.48-26.01,7.94-38.14,14.4-11.59,5.95-22.47,12.81-32.92,20.52-12.84,9.49-24.78,20.16-35.73,31.77-.13.13-.35.36-.21.24.73-.9.69-2.65-.13-3.54.97.54,2.47,1.12,4.1,1.57,12.34,3.21,25.37,4.33,38.08,5.91,19.38,2.27,38.88,3.5,58.35,3.59,0,0-3.26,1.24-3.26,1.24,26.3-23.01,55.17-44.75,82.62-66.56h0Zm3.13-.62c-26.09,25.44-53.09,52.14-80.55,75.97-20.59.17-41.11-.98-61.47-3.58-13.32-1.75-26.61-3.12-39.65-6.82-2.99-.97-7.13-2.37-9.06-5.44-1.77-2.78-.95-6.3,1.36-8.38,20.95-21.16,45.28-39.25,72.1-52.25,16.41-8.14,34.51-15.39,53.17-14.69,19.93.94,39.47,6.24,58.36,12.36,0,0,2.35.8,2.35.8,0,0,1.17.41,1.17.41,0,0,.59.21.59.21.51.12,1.47.86,1.65,1.41h0Z"/>
    </g>
    <g>
      <path class="cls-11" d="m532.66,623.38l-23.15-22.32c-.12.12-.2.29-.35.37-41.69,22.05-57.81,79.6-44.92,91.63,12.89,12.04,69.75-7.47,91.92-47.75l-23.5-21.94Z"/>
      <path class="cls-10" d="m529.91,626.28s-23.17-22.34-23.17-22.34c0,0,5.69-.14,5.69-.14,0,0,0,0,0,0,.19-.22.22-.28.11-.15-.11.12-.34.45-.86.86-.3.27-.7.44-.98.58-16.23,7.41-29.02,20.85-37.86,36.23-6.61,11.8-11.74,25.18-11.65,38.85.15,6.71,1.96,13.46,9.54,14.64,11.22,1.89,22.66-2.01,32.93-6.35,20.44-9.19,39.29-24.67,48.99-45.05,0,0,.77,4.85.77,4.85,0,0-23.52-21.97-23.52-21.97h0Zm5.51-5.8s23.48,21.92,23.48,21.92c0,0,2.35,2.19,2.35,2.19-7.83,13.49-18.95,24.48-31.56,33.25-11.64,8.01-24.49,14.38-38.21,17.9-8.5,1.96-20.72,4.38-28.04-1.78-6.72-6.88-4.95-19.29-3.37-27.86,6.03-27.15,22.53-52.45,46.15-67.49,0,0,.78-.48.78-.48,0,0,.19-.12.19-.12,0,0,.1-.06.1-.06.06-.03.01-.01-.17.09-.13.08-.25.16-.34.23-.4.32-.54.53-.56.54.42-.63,2.65-2.87,3.15-3.46.38.32,24.65,23.8,26.06,25.12h0Z"/>
    </g>
    <g>
      <path class="cls-11" d="m524.48,632.26l-15.56-14.99c-.08.08-.13.19-.23.25-27.68,14.46-38.12,52.71-29.46,60.8,8.66,8.09,46.47-4.6,61.04-31.31l-15.79-14.74Z"/>
      <path class="cls-10" d="m521.73,635.16l-15.58-15.01s5.69-.14,5.69-.14c.21-.23.26-.34.17-.21-.07.19-1.13,1.15-1.56,1.27-5.29,2.11-10.02,5.34-14.21,9.2-10.49,10.01-18.6,24.73-18.71,39.49.11,2.69.61,5.8,2.53,7.69,2.02,1.78,5.17,2.08,7.86,2.04,2.94-.08,5.91-.61,8.8-1.41,16.85-4.92,32.93-16.71,40.03-32.98,0,0,.78,4.84.78,4.84l-15.81-14.77h0Zm5.51-5.8c1.42,1.31,17.21,16.08,18.12,16.92,0,0-1.57,2.64-1.57,2.65-11.25,16.27-27.81,26.92-46.39,31.78-18.32,4.22-24.94-1.63-21.56-20.34,3.52-17.12,13.23-33.12,27.24-43.73,1.19-.9,2.44-1.75,3.7-2.57,0,0,.07-.04.07-.04.05-.02.02-.02-.18.1-.33.14-1.03.85-1,.86-.03.04.06-.12.34-.43,0,0,2.76-2.96,2.77-2.97,1.58,1.56,16.47,15.84,18.46,17.79h0Z"/>
    </g>
    <g>
      <rect class="cls-11" x="519.27" y="566.47" width="42.75" height="98" transform="translate(-278.18 590.55) rotate(-46.96)"/>
      <rect class="cls-4" x="519.27" y="566.47" width="42.75" height="98" transform="translate(-278.18 590.55) rotate(-46.96)"/>
    </g>
  </g>
  <path class="cls-5" d="m405.66,422.06c1.04-11.04,2.65-21.91,4.8-32.59"/>
  <path class="cls-5" d="m958.43,256.14c1.37,1.7,2.73,3.42,4.07,5.16,40.63,52.62,64.8,118.59,64.8,190.21,0,13.76-.89,27.31-2.62,40.6-.19,1.42-.38,2.84-.58,4.26"/>
  <path class="cls-5" d="m653.1,146.31c20.25-4.14,41.22-6.31,62.69-6.31,56.95,0,110.32,15.28,156.26,41.97"/>
  <path class="cls-9" d="m433.17,626c11.67-12.55,27.08-29.03,27.12-29,.09.07-63.91,69.07-64,69-.05-.04,18.63-20.36,36.88-40Z"/>
  <path class="cls-9" d="m413.49,695.98c11.67-12.55,27.08-29.03,27.12-29,.09.07-63.91,69.07-64,69-.05-.04,18.63-20.36,36.88-40Z"/>
  <path class="cls-9" d="m459.49,744.98c11.67-12.55,27.08-29.03,27.12-29,.09.07-63.91,69.07-64,69-.05-.04,18.63-20.36,36.88-40Z"/>
  <path class="cls-9" d="m419.49,738.98c11.67-12.55,27.08-29.03,27.12-29,.09.07-63.91,69.07-64,69-.05-.04,18.63-20.36,36.88-40Z"/>
  <path class="cls-5" d="m784.93,750.48c-22.23,5-45.37,7.64-69.13,7.64-55.05,0-106.77-14.17-151.65-39.04"/>
  <path class="cls-5" d="m968.27,268.01c37.13,50.88,59.02,113.43,59.02,181.05,0,16.06-1.23,31.83-3.61,47.23"/>
  <path class="cls-5" d="m958.87,255.77c3.23,4,6.37,8.08,9.4,12.23"/>
  <path class="cls-5" d="m660.61,144.84c17.91-3.18,36.35-4.84,55.19-4.84,55.54,0,107.68,14.42,152.83,39.69"/>
  <path class="cls-5" d="m437.3,582.64c-20.48-41.18-31.99-87.55-31.99-136.58,0-17,1.38-33.69,4.05-49.94"/>
</svg>