<svg id="svg" version="1.1" xmlns="http://www.w3.org/2000/svg" xmlns:xlink="http://www.w3.org/1999/xlink" width="400" height="400" viewBox="0, 0, 400,400"><g id="svgg"><path id="path0" d="M197.100 20.652 C 196.715 20.766,196.400 21.018,196.400 21.214 C 196.400 21.409,195.995 21.946,195.500 22.407 L 194.600 23.245 194.400 58.981 C 194.183 97.698,194.261 96.400,192.159 96.400 C 191.874 96.400,191.156 96.850,190.562 97.400 C 189.969 97.950,189.336 98.400,189.157 98.400 C 188.978 98.400,188.627 99.165,188.378 100.100 C 188.129 101.035,187.674 102.083,187.366 102.428 C 186.903 102.948,186.789 107.099,186.703 126.584 C 186.604 149.274,186.573 150.129,185.835 150.556 C 183.671 151.811,178.400 156.777,178.399 157.563 C 178.398 157.914,178.016 158.824,177.551 159.588 C 176.492 161.326,176.380 166.073,177.374 167.171 C 177.713 167.545,178.201 168.470,178.460 169.226 C 178.718 169.982,179.267 170.960,179.680 171.400 C 180.094 171.840,180.875 172.721,181.416 173.358 L 182.400 174.517 182.394 199.158 C 182.391 212.711,182.250 224.016,182.082 224.281 C 181.856 224.636,178.077 224.792,167.549 224.881 C 157.819 224.962,153.144 225.142,152.761 225.448 C 152.452 225.694,151.480 226.124,150.600 226.402 C 149.025 226.901,148.586 227.187,147.000 228.753 C 143.492 232.216,142.770 234.302,142.463 241.858 C 142.253 247.007,142.067 248.467,141.545 249.058 C 141.184 249.466,140.768 250.430,140.620 251.200 C 140.273 253.001,139.579 254.800,139.232 254.800 C 139.082 254.800,138.741 255.860,138.473 257.157 C 138.206 258.453,137.734 259.723,137.425 259.980 C 137.115 260.236,136.746 261.134,136.604 261.975 C 136.390 263.241,135.900 263.866,133.755 265.606 C 132.330 266.762,130.881 268.269,130.534 268.954 C 130.187 269.639,129.610 270.534,129.252 270.943 C 128.077 272.282,128.293 291.430,129.500 292.964 C 129.995 293.593,130.400 294.316,130.400 294.570 C 130.400 295.001,133.114 297.730,133.864 298.055 C 134.842 298.478,136.331 300.946,136.570 302.539 C 136.718 303.527,137.091 304.543,137.398 304.798 C 137.705 305.053,138.180 306.283,138.454 307.531 C 138.727 308.779,139.070 309.890,139.215 310.000 C 141.076 311.405,141.115 317.737,139.270 318.769 C 138.092 319.428,138.288 330.288,139.500 331.500 C 139.995 331.995,140.400 332.552,140.400 332.739 C 140.400 333.174,143.136 336.000,143.557 336.000 C 143.733 336.000,144.202 336.360,144.600 336.800 C 144.998 337.240,145.611 337.601,145.962 337.601 C 146.313 337.602,147.210 337.975,147.956 338.430 C 148.702 338.885,150.830 339.502,152.684 339.803 C 154.539 340.103,156.307 340.557,156.614 340.811 C 156.966 341.104,159.827 341.356,164.387 341.497 C 169.792 341.664,171.716 341.858,172.057 342.268 C 172.541 342.851,172.262 390.892,171.760 393.500 L 171.509 394.800 175.355 394.800 C 179.190 394.800,179.200 394.803,179.200 395.800 C 179.200 396.729,179.338 396.800,181.137 396.800 L 183.074 396.800 183.337 390.136 C 183.482 386.471,183.600 374.349,183.600 363.198 C 183.600 344.065,183.641 342.887,184.331 342.262 C 185.406 341.289,213.727 341.253,215.111 342.223 L 216.000 342.845 216.002 365.923 C 216.003 378.615,216.120 390.755,216.262 392.900 L 216.521 396.800 218.660 396.800 C 220.676 396.800,220.800 396.742,220.800 395.800 C 220.800 394.813,220.845 394.800,224.132 394.800 L 227.465 394.800 227.277 368.735 C 227.058 338.127,226.276 341.603,233.376 341.593 C 236.130 341.589,239.402 341.328,241.000 340.985 C 242.540 340.655,245.318 340.116,247.172 339.789 C 249.027 339.461,250.827 338.947,251.172 338.647 C 251.518 338.347,252.496 337.878,253.346 337.604 C 254.918 337.099,255.235 336.880,257.668 334.612 C 260.989 331.517,262.892 322.602,260.757 320.142 C 260.403 319.734,259.922 318.829,259.689 318.132 C 259.455 317.435,258.905 316.505,258.466 316.066 C 257.562 315.162,257.768 313.238,258.949 311.552 C 259.307 311.040,259.600 310.340,259.600 309.996 C 259.600 309.651,259.956 308.671,260.391 307.817 C 260.826 306.964,261.389 305.621,261.642 304.833 C 261.894 304.045,262.334 303.130,262.619 302.800 C 262.904 302.470,263.257 301.722,263.403 301.138 C 263.548 300.554,264.291 299.564,265.053 298.938 C 268.486 296.117,269.287 295.324,269.835 294.200 C 270.158 293.540,270.684 292.550,271.005 292.000 C 271.852 290.547,271.858 273.067,271.011 271.600 C 270.694 271.050,270.267 270.237,270.063 269.793 C 269.858 269.350,268.320 267.625,266.645 265.961 C 264.611 263.939,263.600 262.630,263.600 262.015 C 263.600 261.509,263.262 260.533,262.849 259.847 C 262.435 259.161,261.872 257.880,261.598 257.000 C 261.323 256.120,260.867 255.130,260.583 254.800 C 260.300 254.470,259.942 253.523,259.789 252.697 C 259.635 251.870,259.129 250.709,258.663 250.117 C 257.927 249.180,257.783 248.308,257.562 243.417 C 257.232 236.148,255.806 231.858,252.767 229.000 C 252.533 228.780,251.950 228.229,251.471 227.776 C 250.992 227.323,249.250 226.467,247.600 225.874 L 244.600 224.796 231.580 224.798 C 221.984 224.799,218.434 224.674,218.080 224.320 C 217.717 223.957,217.600 217.732,217.600 198.755 L 217.600 173.670 219.688 171.171 L 221.777 168.671 221.935 164.732 C 222.102 160.570,221.615 157.677,220.539 156.446 C 218.441 154.045,217.143 152.836,216.413 152.604 C 215.958 152.460,215.050 151.770,214.395 151.071 L 213.204 149.800 213.202 126.585 C 213.200 104.161,213.173 103.316,212.400 101.800 C 211.960 100.937,211.600 99.981,211.600 99.676 C 211.600 98.922,209.323 96.846,208.183 96.560 C 205.654 95.925,205.820 98.347,205.600 59.035 L 205.400 23.353 204.280 22.022 C 203.153 20.683,199.414 19.970,197.100 20.652 M201.757 108.633 C 202.195 109.773,202.032 145.192,201.586 146.026 C 200.940 147.233,198.883 147.070,198.390 145.774 C 197.787 144.188,197.872 109.088,198.480 108.480 C 199.190 107.770,201.467 107.876,201.757 108.633 M208.200 161.031 C 211.384 162.991,210.387 165.929,206.305 166.614 C 205.367 166.771,204.245 167.148,203.811 167.450 C 202.725 168.207,196.860 168.197,195.775 167.437 C 195.333 167.128,194.091 166.743,193.015 166.581 C 190.111 166.146,188.056 163.587,189.543 162.259 C 193.065 159.114,203.925 158.399,208.200 161.031 M205.125 180.016 L 206.000 180.831 206.000 202.084 C 206.000 227.441,206.725 224.800,199.761 224.800 C 192.913 224.800,193.600 227.344,193.600 202.000 C 193.600 183.621,193.678 180.866,194.223 180.089 C 195.136 178.785,203.742 178.727,205.125 180.016 M244.450 237.500 C 246.121 239.274,246.100 241.022,244.398 241.883 C 242.734 242.725,156.096 242.623,154.889 241.777 C 153.883 241.072,153.669 238.962,154.500 237.935 C 156.154 235.891,153.583 236.000,200.008 236.000 L 243.038 236.000 244.450 237.500 M247.771 254.228 C 248.116 254.573,248.517 255.338,248.660 255.928 C 248.804 256.518,249.234 257.403,249.615 257.895 C 250.703 259.301,251.013 262.301,250.168 263.236 C 249.470 264.006,152.575 264.502,150.602 263.745 C 148.539 262.954,149.994 255.720,152.581 253.906 C 153.534 253.238,247.097 253.554,247.771 254.228 M259.777 276.089 C 260.686 277.387,260.682 286.861,259.771 287.771 C 258.781 288.762,141.427 288.729,140.331 287.738 C 139.324 286.826,139.236 277.497,140.223 276.089 L 140.845 275.200 200.000 275.200 L 259.155 275.200 259.777 276.089 M249.669 300.262 C 250.629 301.131,250.598 302.840,249.600 304.109 C 249.160 304.669,248.799 305.278,248.798 305.463 C 248.775 308.939,246.597 310.364,242.875 309.338 C 239.524 308.414,157.843 308.168,156.746 309.079 C 153.744 311.570,150.994 309.650,149.382 303.935 L 148.477 300.729 149.738 300.180 C 151.845 299.264,248.653 299.343,249.669 300.262 M241.000 320.364 C 241.880 320.642,243.636 321.107,244.903 321.398 C 247.129 321.908,249.632 323.514,250.186 324.787 C 250.637 325.824,247.580 328.239,245.446 328.532 C 244.428 328.671,242.651 329.104,241.498 329.493 C 238.419 330.531,159.564 330.592,157.982 329.558 C 157.442 329.204,155.974 328.788,154.721 328.631 C 148.495 327.856,147.911 322.771,153.914 321.608 C 155.171 321.364,156.650 320.968,157.200 320.727 C 159.327 319.797,164.196 319.692,201.200 319.773 C 230.687 319.839,239.765 319.973,241.000 320.364 " stroke="none" fill="#1f1e1c" fill-rule="evenodd"></path><path id="path1" d="M196.828 20.301 C 193.560 21.967,193.825 18.834,193.600 58.529 C 193.395 94.648,193.388 94.804,191.867 95.497 C 190.082 96.310,188.307 98.180,187.365 100.240 L 186.400 102.349 186.400 125.783 L 186.400 149.216 184.510 150.508 C 174.920 157.064,173.209 166.494,180.359 173.381 L 182.000 174.962 182.000 198.907 C 182.000 214.649,181.858 223.118,181.586 223.626 C 181.188 224.369,180.601 224.400,166.951 224.400 L 152.729 224.400 150.265 225.557 C 144.578 228.225,142.042 232.650,141.739 240.433 C 141.525 245.900,140.710 249.551,138.747 253.826 C 138.336 254.721,138.000 255.718,138.000 256.042 C 138.000 256.366,137.634 257.344,137.186 258.215 C 136.738 259.087,136.183 260.538,135.953 261.441 C 135.618 262.754,135.002 263.520,132.867 265.273 C 130.981 266.823,129.878 268.110,129.100 269.672 L 128.000 271.880 128.002 282.040 L 128.003 292.200 129.326 294.400 C 130.053 295.610,131.378 297.140,132.270 297.800 C 133.161 298.460,134.275 299.720,134.745 300.600 C 135.576 302.156,135.895 302.968,137.806 308.400 C 138.309 309.830,139.007 311.540,139.358 312.200 C 140.280 313.936,140.149 315.536,138.900 317.803 C 137.255 320.790,137.231 329.235,138.861 332.000 C 141.236 336.032,146.467 339.556,151.345 340.412 C 152.695 340.649,154.520 341.104,155.400 341.425 C 156.434 341.801,159.619 342.112,164.400 342.303 L 171.800 342.600 171.646 362.000 C 171.561 372.670,171.336 381.817,171.146 382.326 C 170.690 383.548,170.697 394.800,171.155 394.800 C 172.117 394.800,173.000 343.405,172.057 342.268 C 171.716 341.858,169.792 341.664,164.387 341.497 C 159.827 341.356,156.966 341.104,156.614 340.811 C 156.307 340.557,154.539 340.103,152.684 339.803 C 150.830 339.502,148.702 338.885,147.956 338.430 C 147.210 337.975,146.313 337.602,145.962 337.601 C 145.611 337.601,144.998 337.240,144.600 336.800 C 144.202 336.360,143.733 336.000,143.557 336.000 C 143.136 336.000,140.400 333.174,140.400 332.739 C 140.400 332.552,139.995 331.995,139.500 331.500 C 138.288 330.288,138.092 319.428,139.270 318.769 C 141.115 317.737,141.076 311.405,139.215 310.000 C 139.070 309.890,138.727 308.779,138.454 307.531 C 138.180 306.283,137.705 305.053,137.398 304.798 C 137.091 304.543,136.718 303.527,136.570 302.539 C 136.331 300.946,134.842 298.478,133.864 298.055 C 133.114 297.730,130.400 295.001,130.400 294.570 C 130.400 294.316,129.995 293.593,129.500 292.964 C 128.293 291.430,128.077 272.282,129.252 270.943 C 129.610 270.534,130.187 269.639,130.534 268.954 C 130.881 268.269,132.330 266.762,133.755 265.606 C 135.900 263.866,136.390 263.241,136.604 261.975 C 136.746 261.134,137.115 260.236,137.425 259.980 C 137.734 259.723,138.206 258.453,138.473 257.157 C 138.741 255.860,139.082 254.800,139.232 254.800 C 139.579 254.800,140.273 253.001,140.620 251.200 C 140.768 250.430,141.184 249.466,141.545 249.058 C 142.067 248.467,142.253 247.007,142.463 241.858 C 142.770 234.302,143.492 232.216,147.000 228.753 C 148.586 227.187,149.025 226.901,150.600 226.402 C 151.480 226.124,152.452 225.694,152.761 225.448 C 153.144 225.142,157.819 224.962,167.549 224.881 C 178.077 224.792,181.856 224.636,182.082 224.281 C 182.250 224.016,182.391 212.711,182.394 199.158 L 182.400 174.517 181.416 173.358 C 180.875 172.721,180.094 171.840,179.680 171.400 C 179.267 170.960,178.718 169.982,178.460 169.226 C 178.201 168.470,177.713 167.545,177.374 167.171 C 176.380 166.073,176.492 161.326,177.551 159.588 C 178.016 158.824,178.398 157.914,178.399 157.563 C 178.400 156.777,183.671 151.811,185.835 150.556 C 186.573 150.129,186.604 149.274,186.703 126.584 C 186.789 107.099,186.903 102.948,187.366 102.428 C 187.674 102.083,188.129 101.035,188.378 100.100 C 188.627 99.165,188.978 98.400,189.157 98.400 C 189.336 98.400,189.969 97.950,190.562 97.400 C 191.156 96.850,191.874 96.400,192.159 96.400 C 194.261 96.400,194.183 97.698,194.400 58.981 L 194.600 23.245 195.459 22.445 C 195.932 22.005,196.397 21.410,196.493 21.122 C 196.936 19.799,202.969 20.464,204.242 21.976 L 205.400 23.353 205.600 59.035 C 205.820 98.347,205.654 95.925,208.183 96.560 C 209.323 96.846,211.600 98.922,211.600 99.676 C 211.600 99.981,211.960 100.937,212.400 101.800 C 213.173 103.316,213.200 104.161,213.202 126.585 L 213.204 149.800 214.395 151.071 C 215.050 151.770,215.958 152.460,216.413 152.604 C 217.143 152.836,218.441 154.045,220.539 156.446 C 221.615 157.677,222.102 160.570,221.935 164.732 L 221.777 168.671 219.688 171.171 L 217.600 173.670 217.600 198.755 C 217.600 217.732,217.717 223.957,218.080 224.320 C 218.434 224.674,221.984 224.799,231.580 224.798 L 244.600 224.796 247.600 225.874 C 249.250 226.467,250.992 227.323,251.471 227.776 C 251.950 228.229,252.533 228.780,252.767 229.000 C 255.806 231.858,257.232 236.148,257.562 243.417 C 257.783 248.308,257.927 249.180,258.663 250.117 C 259.129 250.709,259.635 251.870,259.789 252.697 C 259.942 253.523,260.300 254.470,260.583 254.800 C 260.867 255.130,261.323 256.120,261.598 257.000 C 261.872 257.880,262.435 259.161,262.849 259.847 C 263.262 260.533,263.600 261.509,263.600 262.015 C 263.600 262.630,264.611 263.939,266.645 265.961 C 268.320 267.625,269.858 269.350,270.063 269.793 C 270.267 270.237,270.694 271.050,271.011 271.600 C 271.858 273.067,271.852 290.547,271.005 292.000 C 270.684 292.550,270.158 293.540,269.835 294.200 C 269.287 295.324,268.486 296.117,265.053 298.938 C 264.291 299.564,263.548 300.554,263.403 301.138 C 263.257 301.722,262.904 302.470,262.619 302.800 C 262.334 303.130,261.894 304.045,261.642 304.833 C 261.389 305.621,260.826 306.964,260.391 307.817 C 259.956 308.671,259.600 309.651,259.600 309.996 C 259.600 310.340,259.307 311.040,258.949 311.552 C 257.768 313.238,257.562 315.162,258.466 316.066 C 258.905 316.505,259.455 317.435,259.689 318.132 C 259.922 318.829,260.403 319.734,260.757 320.142 C 262.892 322.602,260.989 331.517,257.668 334.612 C 255.235 336.880,254.918 337.099,253.346 337.604 C 252.496 337.878,251.518 338.347,251.172 338.647 C 250.827 338.947,249.027 339.461,247.172 339.789 C 245.318 340.116,242.540 340.655,241.000 340.985 C 239.420 341.324,236.140 341.589,233.474 341.593 C 226.437 341.603,227.200 339.231,227.201 361.114 C 227.202 380.365,227.536 394.800,227.979 394.800 C 228.118 394.800,228.224 383.055,228.216 368.700 L 228.200 342.600 234.400 342.326 C 253.600 341.478,262.225 336.099,262.178 325.000 C 262.161 321.040,260.786 316.780,259.209 315.806 C 258.522 315.381,258.739 314.313,260.232 310.785 C 261.019 308.923,261.843 306.860,262.063 306.200 C 262.284 305.540,262.809 304.345,263.232 303.546 C 263.654 302.746,264.000 301.811,264.000 301.468 C 264.000 301.126,264.733 300.250,265.630 299.523 C 268.365 297.303,269.759 295.880,271.007 294.035 L 272.200 292.269 272.200 281.835 C 272.200 269.769,272.549 270.980,267.577 265.800 C 265.487 263.624,264.409 262.163,264.206 261.234 C 264.042 260.483,263.478 259.061,262.954 258.075 C 262.429 257.088,261.999 256.083,261.998 255.840 C 261.997 255.598,261.547 254.514,260.998 253.432 C 260.449 252.350,260.000 251.229,260.000 250.942 C 260.000 250.654,259.641 249.830,259.201 249.110 C 258.607 248.135,258.401 247.083,258.394 245.000 C 258.382 241.062,257.722 235.229,257.220 234.624 C 256.988 234.345,256.574 233.471,256.299 232.683 C 255.414 230.142,252.178 226.847,249.302 225.556 L 246.725 224.400 232.806 224.400 C 220.481 224.400,218.858 224.327,218.643 223.767 C 218.509 223.419,218.400 212.096,218.400 198.604 L 218.400 174.073 220.249 171.803 C 225.356 165.535,223.667 156.127,216.642 151.703 C 213.852 149.946,214.027 151.636,214.013 126.274 C 213.998 99.117,213.879 98.445,208.600 95.710 C 207.940 95.368,207.268 94.888,207.106 94.644 C 206.944 94.400,206.806 79.260,206.798 61.000 C 206.783 26.248,206.660 23.367,205.123 21.699 C 203.190 19.601,199.440 18.969,196.828 20.301 M198.480 108.480 C 197.872 109.088,197.787 144.188,198.390 145.774 C 198.883 147.070,200.940 147.233,201.586 146.026 C 202.032 145.192,202.195 109.773,201.757 108.633 C 201.467 107.876,199.190 107.770,198.480 108.480 M192.200 160.608 C 189.537 162.026,188.847 162.692,189.087 163.611 C 189.485 165.134,191.000 166.279,193.015 166.581 C 194.091 166.743,195.333 167.128,195.775 167.437 C 196.860 168.197,202.725 168.207,203.811 167.450 C 204.245 167.148,205.367 166.771,206.305 166.614 C 208.316 166.277,210.509 164.347,210.321 163.080 C 209.847 159.878,196.890 158.110,192.200 160.608 M207.375 161.527 C 209.836 162.876,209.915 163.069,208.559 164.425 C 205.204 167.781,192.241 167.440,190.372 163.948 C 188.731 160.882,202.597 158.908,207.375 161.527 M194.223 180.089 C 193.678 180.866,193.600 183.621,193.600 202.000 C 193.600 227.344,192.913 224.800,199.761 224.800 C 206.725 224.800,206.000 227.441,206.000 202.084 L 206.000 180.831 205.125 180.016 C 203.742 178.727,195.136 178.785,194.223 180.089 M204.026 180.414 C 204.776 180.815,204.800 181.477,204.800 201.991 L 204.800 223.155 203.911 223.777 C 202.852 224.519,197.988 224.633,196.060 223.961 L 194.800 223.522 194.800 201.990 C 194.800 181.820,194.844 180.447,195.500 180.276 C 196.906 179.908,203.274 180.012,204.026 180.414 M155.989 236.659 C 153.763 238.141,153.231 240.616,154.889 241.777 C 156.096 242.623,242.734 242.725,244.398 241.883 C 246.100 241.022,246.121 239.274,244.450 237.500 L 243.038 236.000 200.008 236.000 C 160.727 236.000,156.892 236.057,155.989 236.659 M243.838 238.043 C 244.708 239.006,244.644 240.367,243.695 241.100 C 242.984 241.649,157.968 241.788,156.000 241.244 C 154.502 240.830,154.432 239.259,155.861 238.116 L 157.000 237.204 200.038 237.202 L 243.076 237.200 243.838 238.043 M152.581 253.906 C 149.994 255.720,148.539 262.954,150.602 263.745 C 152.575 264.502,249.470 264.006,250.168 263.236 C 251.013 262.301,250.703 259.301,249.615 257.895 C 249.234 257.403,248.804 256.518,248.660 255.928 C 248.049 253.423,251.738 253.599,200.071 253.606 C 174.182 253.609,152.811 253.744,152.581 253.906 M247.651 255.500 C 247.890 256.105,248.536 257.609,249.088 258.841 C 249.910 260.678,250.008 261.237,249.631 261.941 L 249.172 262.800 199.973 262.800 L 150.774 262.800 150.441 261.900 C 150.097 260.972,150.396 259.859,151.945 256.300 L 152.772 254.400 199.994 254.400 L 247.217 254.400 247.651 255.500 M140.223 276.089 C 139.236 277.497,139.324 286.826,140.331 287.738 C 141.427 288.729,258.781 288.762,259.771 287.771 C 260.682 286.861,260.686 277.387,259.777 276.089 L 259.155 275.200 200.000 275.200 L 140.845 275.200 140.223 276.089 M258.936 276.504 C 260.205 277.432,259.731 287.273,258.400 287.643 C 257.153 287.989,143.766 288.093,142.050 287.750 L 140.800 287.500 140.800 281.979 C 140.800 277.058,140.876 276.439,141.500 276.276 C 143.362 275.789,258.264 276.012,258.936 276.504 M149.738 300.180 L 148.477 300.729 149.382 303.935 C 150.994 309.650,153.744 311.570,156.746 309.079 C 157.843 308.168,239.524 308.414,242.875 309.338 C 246.597 310.364,248.775 308.939,248.798 305.463 C 248.799 305.278,249.160 304.669,249.600 304.109 C 250.598 302.840,250.629 301.131,249.669 300.262 C 248.653 299.343,151.845 299.264,149.738 300.180 M249.352 301.900 C 249.208 302.505,248.917 303.336,248.706 303.746 C 248.495 304.156,248.108 305.236,247.845 306.146 C 247.166 308.495,246.210 308.860,242.200 308.303 C 236.480 307.507,158.841 307.685,155.600 308.500 C 152.278 309.336,150.706 307.700,150.125 302.800 L 149.889 300.800 199.752 300.800 L 249.615 300.800 249.352 301.900 M160.600 319.990 C 159.280 320.155,157.750 320.487,157.200 320.727 C 156.650 320.968,155.171 321.364,153.914 321.608 C 147.911 322.771,148.495 327.856,154.721 328.631 C 155.974 328.788,157.442 329.204,157.982 329.558 C 159.564 330.592,238.419 330.531,241.498 329.493 C 242.651 329.104,244.428 328.671,245.446 328.532 C 247.580 328.239,250.637 325.824,250.186 324.787 C 249.632 323.514,247.129 321.908,244.903 321.398 C 243.636 321.107,241.880 320.642,241.000 320.364 C 239.183 319.789,164.959 319.444,160.600 319.990 M241.498 321.627 C 246.023 322.429,246.691 322.676,248.720 324.298 L 249.640 325.034 247.980 326.368 C 246.516 327.545,245.843 327.767,242.260 328.255 C 240.027 328.559,237.300 328.997,236.200 329.228 C 233.447 329.805,163.531 329.492,160.200 328.887 C 158.880 328.647,156.763 328.269,155.496 328.046 C 149.437 326.980,148.877 322.989,154.675 322.192 C 155.734 322.046,157.320 321.737,158.200 321.506 C 163.181 320.195,234.008 320.298,241.498 321.627 M184.304 342.300 C 183.654 343.035,182.998 396.800,183.639 396.800 C 183.954 396.800,184.286 384.464,184.623 360.211 C 184.755 350.758,184.949 342.883,185.055 342.711 C 185.306 342.306,213.649 342.316,214.288 342.722 C 214.660 342.959,214.823 348.926,214.972 367.816 C 215.189 395.369,215.230 396.800,215.800 396.800 C 216.721 396.800,216.068 343.090,215.137 342.300 C 214.383 341.661,213.031 341.600,199.618 341.600 C 186.126 341.600,184.873 341.657,184.304 342.300 " stroke="none" fill="#8c743c" fill-rule="evenodd"></path><path id="path2" d="M185.200 2.192 L 185.200 3.184 176.500 3.292 C 167.944 3.398,167.794 3.415,167.410 4.288 C 167.043 5.126,166.744 5.183,162.210 5.288 C 157.565 5.396,157.396 5.431,157.272 6.300 C 157.149 7.164,156.987 7.200,153.172 7.200 C 149.202 7.200,149.200 7.200,149.200 8.200 L 149.200 9.200 145.200 9.200 L 141.200 9.200 141.200 10.200 C 141.200 11.178,141.133 11.200,138.200 11.200 C 135.282 11.200,135.200 11.227,135.200 12.182 C 135.200 13.115,135.068 13.169,132.500 13.282 C 130.143 13.385,129.750 13.514,129.405 14.300 C 129.075 15.052,128.697 15.200,127.105 15.200 C 125.349 15.200,125.200 15.277,125.200 16.182 C 125.200 17.115,125.068 17.169,122.500 17.282 C 120.143 17.385,119.750 17.514,119.405 18.300 C 119.075 19.052,118.697 19.200,117.105 19.200 C 115.351 19.200,115.200 19.278,115.200 20.178 C 115.200 21.061,115.015 21.168,113.300 21.278 C 111.693 21.381,111.381 21.536,111.275 22.279 C 111.169 23.021,110.856 23.177,109.275 23.279 C 107.694 23.381,107.380 23.538,107.275 24.278 C 107.173 24.999,106.849 25.178,105.475 25.278 C 104.188 25.372,103.709 25.608,103.405 26.300 C 103.047 27.116,102.556 27.271,100.592 27.192 C 100.192 27.175,99.277 28.204,99.338 28.600 C 99.372 28.820,98.905 29.057,98.300 29.127 C 97.436 29.226,97.200 29.462,97.200 30.227 C 97.200 31.128,97.052 31.200,95.200 31.200 C 93.333 31.200,93.200 31.267,93.200 32.200 C 93.200 33.000,93.000 33.200,92.200 33.200 C 91.400 33.200,91.200 33.400,91.200 34.200 C 91.200 35.133,91.067 35.200,89.200 35.200 C 87.333 35.200,87.200 35.267,87.200 36.200 C 87.200 37.000,87.000 37.200,86.200 37.200 C 85.400 37.200,85.200 37.400,85.200 38.200 C 85.200 39.156,84.607 39.386,82.400 39.286 C 82.087 39.271,81.180 40.349,81.215 40.692 C 81.233 40.861,80.832 41.097,80.324 41.216 C 79.764 41.347,79.350 41.781,79.272 42.316 C 79.180 42.950,78.870 43.200,78.172 43.200 C 77.402 43.200,77.200 43.408,77.200 44.200 C 77.200 45.076,75.381 45.729,74.690 45.100 C 74.456 44.887,73.294 46.217,73.466 46.501 C 73.566 46.666,73.170 46.983,72.585 47.206 C 72.001 47.428,71.429 47.967,71.315 48.405 C 71.180 48.918,70.768 49.200,70.153 49.200 C 69.403 49.200,69.200 49.413,69.200 50.200 C 69.200 51.000,69.000 51.200,68.200 51.200 C 67.400 51.200,67.200 51.400,67.200 52.200 C 67.200 53.000,67.000 53.200,66.200 53.200 C 65.400 53.200,65.200 53.400,65.200 54.200 C 65.200 55.000,65.000 55.200,64.200 55.200 C 63.400 55.200,63.200 55.400,63.200 56.200 C 63.200 57.000,63.000 57.200,62.200 57.200 C 61.400 57.200,61.200 57.400,61.200 58.200 C 61.200 59.000,61.000 59.200,60.200 59.200 C 59.400 59.200,59.200 59.400,59.200 60.200 C 59.200 61.000,59.000 61.200,58.200 61.200 C 57.400 61.200,57.200 61.400,57.200 62.200 C 57.200 63.000,57.000 63.200,56.200 63.200 C 55.400 63.200,55.200 63.400,55.200 64.200 C 55.200 65.000,55.000 65.200,54.200 65.200 C 53.408 65.200,53.200 65.402,53.200 66.172 C 53.200 66.876,52.951 67.180,52.300 67.272 C 51.722 67.354,51.354 67.722,51.272 68.300 C 51.181 68.943,50.875 69.200,50.199 69.200 C 49.465 69.200,49.225 69.446,49.127 70.300 C 49.057 70.905,48.820 71.372,48.600 71.338 C 48.380 71.304,47.968 71.529,47.684 71.838 C 47.401 72.147,47.288 72.400,47.433 72.400 C 47.579 72.400,47.476 72.668,47.204 72.996 C 46.932 73.323,46.595 73.522,46.455 73.438 C 46.196 73.281,45.176 74.213,45.192 74.592 C 45.286 76.923,45.181 77.200,44.200 77.200 C 43.400 77.200,43.200 77.400,43.200 78.200 C 43.200 78.993,42.998 79.200,42.227 79.200 C 41.485 79.200,41.223 79.441,41.127 80.212 C 41.057 80.769,40.861 81.215,40.692 81.204 C 40.345 81.180,39.272 82.093,39.286 82.400 C 39.386 84.607,39.156 85.200,38.200 85.200 C 37.428 85.200,37.200 85.406,37.200 86.105 C 37.200 86.660,36.852 87.163,36.300 87.405 C 35.605 87.710,35.372 88.187,35.277 89.500 C 35.169 90.989,35.036 91.200,34.204 91.200 C 33.487 91.200,33.222 91.449,33.127 92.212 C 33.057 92.769,32.820 93.254,32.600 93.290 C 32.143 93.365,31.272 94.100,31.286 94.400 C 31.378 96.435,31.131 97.154,30.300 97.272 C 29.532 97.381,29.382 97.679,29.278 99.300 C 29.169 101.000,29.056 101.200,28.205 101.200 C 27.464 101.200,27.225 101.444,27.127 102.300 C 27.057 102.905,26.906 103.310,26.790 103.200 C 26.320 102.752,25.348 104.237,25.260 105.539 C 25.157 107.063,24.893 107.703,24.472 107.449 C 23.977 107.149,23.394 108.179,23.257 109.600 C 23.105 111.160,22.879 111.694,22.472 111.449 C 21.977 111.149,21.394 112.179,21.257 113.600 C 21.105 115.160,20.879 115.694,20.472 115.449 C 20.207 115.288,18.900 116.471,19.100 116.690 C 19.823 117.484,19.082 121.200,18.200 121.200 C 17.273 121.200,17.200 121.340,17.200 123.105 C 17.200 124.697,17.052 125.075,16.300 125.405 C 15.514 125.750,15.385 126.143,15.282 128.500 C 15.169 131.068,15.115 131.200,14.182 131.200 C 13.227 131.200,13.200 131.282,13.200 134.200 C 13.200 137.133,13.178 137.200,12.200 137.200 C 11.222 137.200,11.200 137.267,11.200 140.200 C 11.200 143.133,11.178 143.200,10.200 143.200 C 9.200 143.200,9.200 143.202,9.200 147.172 C 9.200 150.987,9.164 151.149,8.300 151.272 C 7.448 151.393,7.394 151.603,7.287 155.211 C 7.183 158.707,7.100 159.054,6.287 159.411 C 5.440 159.782,5.395 160.053,5.290 165.410 C 5.184 170.772,5.140 171.036,4.290 171.410 L 3.400 171.800 3.297 199.300 L 3.194 226.800 4.197 226.800 L 5.200 226.800 5.200 232.800 L 5.200 238.800 6.200 238.800 L 7.200 238.800 7.246 243.100 C 7.271 245.465,7.260 247.715,7.221 248.100 C 7.170 248.603,7.438 248.800,8.175 248.800 C 9.184 248.800,9.200 248.847,9.200 251.800 C 9.200 254.733,9.222 254.800,10.200 254.800 C 11.174 254.800,11.631 258.068,11.221 262.100 C 11.170 262.603,11.438 262.800,12.175 262.800 C 13.193 262.800,13.567 264.696,13.221 268.100 C 13.170 268.603,13.438 268.800,14.175 268.800 C 15.138 268.800,15.200 268.920,15.200 270.800 C 15.200 272.667,15.267 272.800,16.200 272.800 C 17.191 272.800,17.563 274.735,17.221 278.100 C 17.170 278.603,17.438 278.800,18.175 278.800 C 19.138 278.800,19.200 278.920,19.200 280.800 C 19.200 282.667,19.267 282.800,20.200 282.800 C 21.133 282.800,21.200 282.933,21.200 284.800 C 21.200 286.667,21.267 286.800,22.200 286.800 C 23.133 286.800,23.200 286.933,23.200 288.800 C 23.200 290.667,23.267 290.800,24.200 290.800 C 25.133 290.800,25.200 290.933,25.200 292.800 C 25.200 294.667,25.267 294.800,26.200 294.800 C 27.205 294.800,27.470 295.656,27.221 298.100 C 27.170 298.603,27.438 298.800,28.175 298.800 C 29.002 298.800,29.200 298.993,29.200 299.800 C 29.200 300.600,29.400 300.800,30.200 300.800 C 31.133 300.800,31.200 300.933,31.200 302.800 C 31.200 304.667,31.267 304.800,32.200 304.800 C 33.205 304.800,33.470 305.656,33.221 308.100 C 33.170 308.603,33.438 308.800,34.175 308.800 C 35.002 308.800,35.200 308.993,35.200 309.800 C 35.200 310.600,35.400 310.800,36.200 310.800 C 37.000 310.800,37.200 311.000,37.200 311.800 C 37.200 312.600,37.400 312.800,38.200 312.800 C 39.133 312.800,39.200 312.933,39.200 314.800 C 39.200 316.667,39.267 316.800,40.200 316.800 C 41.000 316.800,41.200 317.000,41.200 317.800 C 41.200 318.600,41.400 318.800,42.200 318.800 C 43.000 318.800,43.200 319.000,43.200 319.800 C 43.200 320.600,43.400 320.800,44.200 320.800 C 45.205 320.800,45.470 321.656,45.221 324.100 C 45.170 324.603,45.438 324.800,46.175 324.800 C 47.002 324.800,47.200 324.993,47.200 325.800 C 47.200 326.600,47.400 326.800,48.200 326.800 C 49.000 326.800,49.200 327.000,49.200 327.800 C 49.200 328.600,49.400 328.800,50.200 328.800 C 51.000 328.800,51.200 329.000,51.200 329.800 C 51.200 330.600,51.400 330.800,52.200 330.800 C 53.000 330.800,53.200 331.000,53.200 331.800 C 53.200 332.600,53.400 332.800,54.200 332.800 C 55.000 332.800,55.200 333.000,55.200 333.800 C 55.200 334.600,55.400 334.800,56.200 334.800 C 57.000 334.800,57.200 335.000,57.200 335.800 C 57.200 336.600,57.400 336.800,58.200 336.800 C 59.000 336.800,59.200 337.000,59.200 337.800 C 59.200 338.600,59.400 338.800,60.200 338.800 C 61.000 338.800,61.200 339.000,61.200 339.800 C 61.200 340.600,61.400 340.800,62.200 340.800 C 63.000 340.800,63.200 341.000,63.200 341.800 C 63.200 342.600,63.400 342.800,64.200 342.800 C 65.000 342.800,65.200 343.000,65.200 343.800 C 65.200 344.600,65.400 344.800,66.200 344.800 C 67.000 344.800,67.200 345.000,67.200 345.800 C 67.200 346.600,67.400 346.800,68.200 346.800 C 69.000 346.800,69.200 347.000,69.200 347.800 C 69.200 348.600,69.400 348.800,70.200 348.800 C 71.000 348.800,71.200 349.000,71.200 349.800 C 71.200 350.600,71.400 350.800,72.200 350.800 C 72.993 350.800,73.200 351.002,73.200 351.773 C 73.200 352.538,73.436 352.774,74.300 352.873 C 75.183 352.975,75.375 353.178,75.275 353.900 C 75.159 354.731,75.304 354.800,77.175 354.800 C 79.068 354.800,79.200 354.865,79.200 355.800 C 79.200 356.600,79.400 356.800,80.200 356.800 C 80.993 356.800,81.200 357.002,81.200 357.773 C 81.200 358.538,81.436 358.774,82.300 358.873 C 83.183 358.975,83.375 359.178,83.275 359.900 C 83.159 360.731,83.304 360.800,85.175 360.800 C 87.068 360.800,87.200 360.865,87.200 361.800 C 87.200 362.600,87.400 362.800,88.200 362.800 C 89.000 362.800,89.200 363.000,89.200 363.800 C 89.200 364.733,89.333 364.800,91.200 364.800 C 93.052 364.800,93.200 364.872,93.200 365.773 C 93.200 366.538,93.436 366.774,94.300 366.873 C 95.183 366.975,95.375 367.178,95.275 367.900 C 95.159 368.731,95.304 368.800,97.175 368.800 C 99.068 368.800,99.200 368.865,99.200 369.800 C 99.200 370.733,99.333 370.800,101.200 370.800 C 103.067 370.800,103.200 370.867,103.200 371.800 C 103.200 372.733,103.333 372.800,105.200 372.800 C 107.052 372.800,107.200 372.872,107.200 373.773 C 107.200 374.538,107.436 374.774,108.300 374.873 C 109.174 374.974,109.375 375.181,109.279 375.878 C 109.168 376.675,109.354 376.768,111.279 376.878 C 113.220 376.990,113.389 377.076,113.275 377.900 C 113.155 378.765,113.267 378.800,116.175 378.800 C 119.135 378.800,119.200 378.821,119.200 379.800 C 119.200 380.733,119.333 380.800,121.200 380.800 C 123.055 380.800,123.200 380.871,123.200 381.779 C 123.200 382.678,123.372 382.768,125.300 382.879 C 127.219 382.990,127.389 383.077,127.275 383.900 C 127.155 384.765,127.267 384.800,130.175 384.800 C 133.135 384.800,133.200 384.821,133.200 385.800 C 133.200 386.778,133.267 386.800,136.200 386.800 C 139.133 386.800,139.200 386.822,139.200 387.800 L 139.200 388.800 143.200 388.800 L 147.200 388.800 147.200 389.800 L 147.200 390.800 151.200 390.800 L 155.200 390.800 155.200 391.800 L 155.200 392.800 160.200 392.800 L 165.200 392.800 165.200 393.821 C 165.200 394.801,165.284 394.837,167.300 394.721 L 169.400 394.600 169.650 387.400 C 169.788 383.440,169.924 374.530,169.953 367.600 C 169.995 357.276,170.113 354.793,170.602 353.854 C 171.038 353.019,171.200 351.375,171.200 347.793 L 171.200 342.877 162.300 342.718 C 153.791 342.565,151.200 342.207,151.200 341.185 C 151.200 341.028,150.180 340.814,148.934 340.711 C 147.243 340.571,146.490 340.304,145.969 339.662 C 145.586 339.188,144.894 338.800,144.432 338.800 C 143.971 338.800,143.013 338.246,142.303 337.568 C 141.594 336.890,140.831 336.215,140.607 336.068 C 139.423 335.289,137.593 332.291,137.352 330.737 C 137.203 329.781,136.838 328.645,136.541 328.211 C 135.843 327.192,135.847 323.302,136.548 321.959 C 136.847 321.386,137.214 320.102,137.363 319.105 C 137.514 318.098,137.983 316.977,138.418 316.584 C 139.470 315.632,139.483 313.169,138.441 312.518 C 137.941 312.206,137.588 311.364,137.407 310.054 C 137.253 308.932,136.818 307.778,136.409 307.408 C 136.010 307.047,135.559 305.920,135.406 304.903 C 135.254 303.886,134.722 302.502,134.224 301.827 C 133.726 301.152,133.206 300.282,133.069 299.894 C 132.933 299.506,132.387 299.023,131.857 298.822 C 130.796 298.418,129.200 296.414,129.200 295.485 C 129.200 295.160,128.854 294.803,128.431 294.692 C 127.297 294.396,127.133 292.406,127.275 280.600 L 127.400 270.200 128.708 268.200 C 129.427 267.100,131.162 265.247,132.565 264.083 C 134.829 262.203,135.145 261.764,135.386 260.154 C 135.535 259.158,135.985 258.015,136.385 257.615 C 136.788 257.212,137.241 255.956,137.400 254.800 C 137.558 253.652,137.999 252.401,138.381 252.019 C 139.241 251.159,139.568 249.447,139.970 243.711 C 140.142 241.242,140.465 238.992,140.687 238.711 C 140.909 238.430,141.201 236.956,141.336 235.435 C 141.512 233.453,141.811 232.427,142.391 231.810 C 142.836 231.336,143.200 230.767,143.200 230.544 C 143.200 229.906,147.580 225.659,148.537 225.369 C 149.012 225.226,149.819 224.724,150.332 224.254 C 151.243 223.419,151.591 223.397,166.232 223.278 L 181.200 223.155 181.200 199.024 C 181.200 175.250,181.188 174.890,180.402 174.685 C 179.963 174.570,179.487 174.171,179.344 173.798 C 179.201 173.425,178.660 172.696,178.142 172.178 C 177.624 171.660,177.200 171.015,177.200 170.744 C 177.200 170.473,176.795 169.820,176.300 169.293 C 175.466 168.404,175.400 167.969,175.400 163.332 C 175.400 158.626,175.453 158.286,176.300 157.600 C 176.795 157.200,177.200 156.586,177.200 156.237 C 177.200 154.979,180.668 151.728,184.157 149.714 C 184.996 149.229,185.001 149.114,185.200 125.045 L 185.400 100.864 186.300 99.906 C 186.795 99.379,187.200 98.746,187.200 98.499 C 187.200 97.916,190.056 95.208,190.676 95.203 C 191.724 95.196,191.807 92.971,192.000 59.720 C 192.156 32.887,192.311 25.129,192.700 24.740 C 192.975 24.465,193.200 23.805,193.200 23.273 C 193.200 22.087,195.967 19.200,197.104 19.200 C 197.543 19.200,198.126 18.930,198.400 18.600 C 199.024 17.848,200.951 17.818,201.560 18.552 C 201.812 18.855,202.547 19.209,203.193 19.339 C 204.979 19.696,206.797 21.816,206.813 23.559 C 206.820 24.352,207.090 25.349,207.413 25.776 C 207.918 26.445,208.000 31.164,208.000 59.617 C 208.000 92.661,208.097 95.200,209.361 95.200 C 210.035 95.200,212.800 97.795,212.800 98.428 C 212.800 98.714,213.205 99.379,213.700 99.906 L 214.600 100.864 214.709 125.232 C 214.803 146.348,214.896 149.600,215.406 149.600 C 215.729 149.600,216.218 149.960,216.493 150.400 C 216.768 150.840,217.184 151.200,217.418 151.200 C 218.120 151.200,220.800 153.858,220.800 154.554 C 220.800 154.909,221.064 155.200,221.386 155.200 C 222.064 155.200,222.800 156.403,222.800 157.512 C 222.800 157.932,223.160 158.602,223.600 159.000 C 224.795 160.082,224.795 167.118,223.600 168.200 C 223.160 168.598,222.797 169.301,222.793 169.762 C 222.789 170.223,221.889 171.564,220.793 172.742 L 218.800 174.885 218.800 199.016 L 218.800 223.147 233.568 223.273 C 248.250 223.399,248.342 223.405,249.294 224.300 C 249.821 224.795,250.473 225.200,250.744 225.200 C 251.015 225.200,251.660 225.624,252.178 226.142 C 252.696 226.660,253.412 227.196,253.769 227.333 C 254.126 227.470,254.530 227.874,254.667 228.231 C 254.804 228.588,255.340 229.304,255.858 229.822 C 256.376 230.340,256.800 231.119,256.800 231.553 C 256.800 231.988,257.042 232.584,257.337 232.880 C 258.600 234.143,258.800 235.254,258.800 241.016 C 258.800 246.692,258.833 246.923,259.800 248.073 C 260.350 248.727,260.800 249.731,260.800 250.305 C 260.800 250.879,261.159 251.731,261.598 252.198 C 262.037 252.665,262.558 253.914,262.756 254.974 C 262.954 256.033,263.288 257.013,263.498 257.150 C 264.164 257.585,264.800 259.107,264.803 260.274 C 264.805 261.125,265.416 262.000,267.303 263.853 C 268.676 265.203,270.430 267.093,271.200 268.053 L 272.600 269.800 272.717 281.661 L 272.833 293.523 271.917 294.562 C 271.412 295.134,270.372 296.321,269.603 297.201 C 268.835 298.080,268.051 298.800,267.861 298.800 C 267.671 298.800,267.161 299.250,266.729 299.800 C 266.296 300.350,265.709 300.800,265.424 300.800 C 265.117 300.800,264.813 301.488,264.679 302.486 C 264.555 303.413,264.150 304.394,263.779 304.665 C 263.408 304.936,262.946 306.009,262.751 307.048 C 262.557 308.088,262.108 309.260,261.753 309.652 C 260.985 310.501,259.942 315.117,260.448 315.430 C 260.642 315.549,260.800 315.940,260.800 316.298 C 260.800 316.656,261.205 317.380,261.700 317.906 C 262.556 318.818,262.600 319.177,262.600 325.283 C 262.600 331.496,262.571 331.722,261.700 332.300 C 261.205 332.629,260.800 333.155,260.800 333.469 C 260.800 334.061,258.348 336.800,257.817 336.800 C 257.651 336.800,257.161 337.250,256.729 337.800 C 256.296 338.350,255.576 338.800,255.129 338.800 C 254.681 338.800,253.781 339.250,253.127 339.800 C 252.236 340.550,251.478 340.800,250.095 340.800 C 248.734 340.800,248.001 341.035,247.294 341.700 C 246.372 342.567,246.019 342.605,237.568 342.734 L 228.800 342.868 228.800 368.834 L 228.800 394.800 231.800 394.800 C 234.733 394.800,234.800 394.778,234.800 393.800 L 234.800 392.800 239.800 392.800 L 244.800 392.800 244.800 391.800 L 244.800 390.800 248.800 390.800 L 252.800 390.800 252.800 389.800 C 252.800 388.804,252.814 388.800,256.586 388.800 C 260.266 388.800,261.977 388.110,260.919 387.053 C 260.780 386.914,261.950 386.800,263.519 386.800 C 266.048 386.800,268.639 385.524,266.914 385.128 C 266.741 385.088,267.950 384.953,269.600 384.828 C 272.303 384.623,272.612 384.513,272.725 383.720 C 272.833 382.961,273.137 382.824,274.925 382.720 C 276.693 382.618,277.000 382.482,277.000 381.800 C 277.000 381.117,277.307 380.982,279.100 380.879 C 281.017 380.769,281.200 380.674,281.200 379.797 C 281.200 378.890,281.349 378.830,283.900 378.718 C 286.333 378.612,286.612 378.513,286.725 377.721 C 286.831 376.979,287.144 376.823,288.725 376.721 C 290.304 376.619,290.620 376.462,290.725 375.724 C 290.812 375.111,291.172 374.811,291.925 374.724 C 292.516 374.656,293.022 374.375,293.050 374.100 C 293.078 373.825,293.123 373.420,293.150 373.200 C 293.178 372.980,294.100 372.800,295.200 372.800 C 297.055 372.800,297.200 372.729,297.200 371.822 C 297.200 370.939,297.385 370.832,299.100 370.722 C 300.253 370.648,301.020 370.403,301.050 370.100 C 301.078 369.825,301.123 369.430,301.150 369.223 C 301.178 369.016,301.965 368.791,302.900 368.723 C 304.313 368.621,304.622 368.448,304.728 367.700 C 304.820 367.049,305.124 366.800,305.828 366.800 C 306.592 366.800,306.800 366.591,306.800 365.822 C 306.800 364.939,306.985 364.832,308.700 364.722 C 310.321 364.618,310.619 364.468,310.728 363.700 C 310.820 363.049,311.124 362.800,311.828 362.800 C 312.592 362.800,312.800 362.591,312.800 361.822 C 312.800 360.939,312.985 360.832,314.700 360.722 C 316.321 360.618,316.619 360.468,316.728 359.700 C 316.820 359.049,317.124 358.800,317.828 358.800 C 318.598 358.800,318.800 358.592,318.800 357.800 C 318.800 357.000,319.000 356.800,319.800 356.800 C 320.594 356.800,320.800 356.599,320.800 355.822 C 320.800 354.939,320.985 354.832,322.700 354.722 C 324.321 354.618,324.619 354.468,324.728 353.700 C 324.820 353.049,325.124 352.800,325.828 352.800 C 326.598 352.800,326.800 352.592,326.800 351.800 C 326.800 351.000,327.000 350.800,327.800 350.800 C 328.600 350.800,328.800 350.600,328.800 349.800 C 328.800 349.000,329.000 348.800,329.800 348.800 C 330.600 348.800,330.800 348.600,330.800 347.800 C 330.800 347.000,331.000 346.800,331.800 346.800 C 332.600 346.800,332.800 346.600,332.800 345.800 C 332.800 345.000,333.000 344.800,333.800 344.800 C 334.600 344.800,334.800 344.600,334.800 343.800 C 334.800 343.000,335.000 342.800,335.800 342.800 C 336.600 342.800,336.800 342.600,336.800 341.800 C 336.800 341.000,337.000 340.800,337.800 340.800 C 338.600 340.800,338.800 340.600,338.800 339.800 C 338.800 339.000,339.000 338.800,339.800 338.800 C 340.600 338.800,340.800 338.600,340.800 337.800 C 340.800 337.000,341.000 336.800,341.800 336.800 C 342.600 336.800,342.800 336.600,342.800 335.800 C 342.800 335.000,343.000 334.800,343.800 334.800 C 344.600 334.800,344.800 334.600,344.800 333.800 C 344.800 333.000,345.000 332.800,345.800 332.800 C 346.600 332.800,346.800 332.600,346.800 331.800 C 346.800 331.000,347.000 330.800,347.800 330.800 C 348.600 330.800,348.800 330.600,348.800 329.800 C 348.800 329.000,349.000 328.800,349.800 328.800 C 350.600 328.800,350.800 328.600,350.800 327.800 C 350.800 327.000,351.000 326.800,351.800 326.800 C 352.592 326.800,352.800 326.598,352.800 325.828 C 352.800 325.124,353.049 324.820,353.700 324.728 C 354.468 324.619,354.618 324.321,354.722 322.700 C 354.832 320.985,354.939 320.800,355.822 320.800 C 356.599 320.800,356.800 320.594,356.800 319.800 C 356.800 319.000,357.000 318.800,357.800 318.800 C 358.600 318.800,358.800 318.600,358.800 317.800 C 358.800 317.000,359.000 316.800,359.800 316.800 C 360.733 316.800,360.800 316.667,360.800 314.800 C 360.800 312.933,360.867 312.800,361.800 312.800 C 362.600 312.800,362.800 312.600,362.800 311.800 C 362.800 311.000,363.000 310.800,363.800 310.800 C 364.592 310.800,364.800 310.598,364.800 309.828 C 364.800 309.124,365.049 308.820,365.700 308.728 C 366.468 308.619,366.618 308.321,366.722 306.700 C 366.832 304.985,366.939 304.800,367.822 304.800 C 368.729 304.800,368.800 304.655,368.800 302.800 C 368.800 300.933,368.867 300.800,369.800 300.800 C 370.592 300.800,370.800 300.598,370.800 299.828 C 370.800 299.124,371.049 298.820,371.700 298.728 C 372.466 298.619,372.618 298.321,372.721 296.725 C 372.823 295.144,372.979 294.831,373.721 294.725 C 374.462 294.620,374.619 294.307,374.721 292.725 C 374.823 291.144,374.979 290.831,375.721 290.725 C 376.462 290.620,376.619 290.307,376.721 288.725 C 376.823 287.144,376.979 286.831,377.721 286.725 C 378.462 286.620,378.619 286.307,378.721 284.725 C 378.823 283.144,378.979 282.831,379.721 282.725 C 380.462 282.620,380.619 282.307,380.721 280.725 C 380.823 279.144,380.979 278.831,381.721 278.725 C 382.521 278.611,382.611 278.340,382.718 275.700 C 382.830 272.919,382.875 272.800,383.818 272.800 C 384.728 272.800,384.800 272.655,384.800 270.828 C 384.800 269.087,384.906 268.841,385.700 268.728 C 386.525 268.611,386.610 268.360,386.717 265.726 C 386.824 263.108,386.913 262.840,387.717 262.726 C 388.549 262.607,388.607 262.377,388.714 258.700 C 388.827 254.853,388.842 254.800,389.814 254.800 C 390.773 254.800,390.800 254.720,390.800 251.828 C 390.800 249.050,390.859 248.847,391.700 248.728 C 392.570 248.604,392.604 248.438,392.712 243.700 L 392.825 238.800 393.812 238.800 L 394.800 238.800 394.800 232.800 L 394.800 226.800 395.800 226.800 L 396.800 226.800 396.800 199.000 L 396.800 171.200 395.800 171.200 L 394.800 171.200 394.800 165.200 L 394.800 159.200 393.800 159.200 L 392.800 159.200 392.800 155.200 L 392.800 151.200 391.800 151.200 L 390.800 151.200 390.800 147.200 L 390.800 143.200 389.800 143.200 C 388.822 143.200,388.800 143.133,388.800 140.200 C 388.800 137.267,388.778 137.200,387.800 137.200 C 386.822 137.200,386.800 137.133,386.800 134.200 C 386.800 131.267,386.778 131.200,385.800 131.200 C 384.822 131.200,384.800 131.133,384.800 128.200 C 384.800 125.267,384.778 125.200,383.800 125.200 C 382.867 125.200,382.800 125.067,382.800 123.200 C 382.800 121.333,382.733 121.200,381.800 121.200 C 380.821 121.200,380.800 121.135,380.800 118.175 C 380.800 115.267,380.765 115.155,379.900 115.275 C 379.076 115.389,378.990 115.220,378.878 113.279 C 378.768 111.354,378.675 111.168,377.878 111.279 C 377.081 111.389,376.989 111.204,376.878 109.279 C 376.768 107.354,376.675 107.168,375.878 107.279 C 375.081 107.389,374.989 107.204,374.878 105.279 C 374.768 103.354,374.675 103.168,373.878 103.279 C 373.181 103.375,372.974 103.174,372.873 102.300 C 372.774 101.436,372.538 101.200,371.773 101.200 C 370.872 101.200,370.800 101.052,370.800 99.200 C 370.800 97.333,370.733 97.200,369.800 97.200 C 368.865 97.200,368.800 97.068,368.800 95.175 C 368.800 93.304,368.731 93.159,367.900 93.275 C 367.178 93.375,366.975 93.183,366.873 92.300 C 366.774 91.436,366.538 91.200,365.773 91.200 C 364.872 91.200,364.800 91.052,364.800 89.200 C 364.800 87.333,364.733 87.200,363.800 87.200 C 363.000 87.200,362.800 87.000,362.800 86.200 C 362.800 85.400,362.600 85.200,361.800 85.200 C 360.865 85.200,360.800 85.068,360.800 83.175 C 360.800 81.304,360.731 81.159,359.900 81.275 C 359.178 81.375,358.975 81.183,358.873 80.300 C 358.774 79.436,358.538 79.200,357.773 79.200 C 357.002 79.200,356.800 78.993,356.800 78.200 C 356.800 77.400,356.600 77.200,355.800 77.200 C 354.865 77.200,354.800 77.068,354.800 75.175 C 354.800 73.304,354.731 73.159,353.900 73.275 C 353.174 73.376,352.975 73.183,352.871 72.280 C 352.769 71.388,352.565 71.184,351.871 71.280 C 351.181 71.375,350.974 71.171,350.873 70.300 C 350.774 69.436,350.538 69.200,349.773 69.200 C 349.002 69.200,348.800 68.993,348.800 68.200 C 348.800 67.400,348.600 67.200,347.800 67.200 C 347.000 67.200,346.800 67.000,346.800 66.200 C 346.800 65.400,346.600 65.200,345.800 65.200 C 345.000 65.200,344.800 65.000,344.800 64.200 C 344.800 63.400,344.600 63.200,343.800 63.200 C 343.000 63.200,342.800 63.000,342.800 62.200 C 342.800 61.400,342.600 61.200,341.800 61.200 C 341.000 61.200,340.800 61.000,340.800 60.200 C 340.800 59.400,340.600 59.200,339.800 59.200 C 339.000 59.200,338.800 59.000,338.800 58.200 C 338.800 57.400,338.600 57.200,337.800 57.200 C 337.000 57.200,336.800 57.000,336.800 56.200 C 336.800 55.400,336.600 55.200,335.800 55.200 C 335.000 55.200,334.800 55.000,334.800 54.200 C 334.800 53.400,334.600 53.200,333.800 53.200 C 333.000 53.200,332.800 53.000,332.800 52.200 C 332.800 51.400,332.600 51.200,331.800 51.200 C 331.000 51.200,330.800 51.000,330.800 50.200 C 330.800 49.400,330.600 49.200,329.800 49.200 C 329.000 49.200,328.800 49.000,328.800 48.200 C 328.800 47.400,328.600 47.200,327.800 47.200 C 326.993 47.200,326.800 47.002,326.800 46.175 C 326.800 45.438,326.603 45.170,326.100 45.221 C 323.656 45.470,322.800 45.205,322.800 44.200 C 322.800 43.400,322.600 43.200,321.800 43.200 C 321.000 43.200,320.800 43.000,320.800 42.200 C 320.800 41.400,320.600 41.200,319.800 41.200 C 318.993 41.200,318.800 41.002,318.800 40.175 C 318.800 39.438,318.603 39.170,318.100 39.221 C 315.656 39.470,314.800 39.205,314.800 38.200 C 314.800 37.400,314.600 37.200,313.800 37.200 C 313.000 37.200,312.800 37.000,312.800 36.200 C 312.800 35.267,312.667 35.200,310.800 35.200 C 308.933 35.200,308.800 35.133,308.800 34.200 C 308.800 33.400,308.600 33.200,307.800 33.200 C 307.000 33.200,306.800 33.000,306.800 32.200 C 306.800 31.285,306.650 31.200,305.043 31.200 C 303.503 31.200,303.256 31.077,303.036 30.200 C 302.852 29.469,302.517 29.200,301.792 29.200 C 300.994 29.200,300.800 29.000,300.800 28.175 C 300.800 27.438,300.603 27.170,300.100 27.221 C 298.640 27.369,296.802 27.188,296.847 26.900 C 297.070 25.491,296.754 25.200,295.000 25.200 C 294.010 25.200,293.178 25.020,293.150 24.800 C 293.123 24.580,293.078 24.175,293.050 23.900 C 293.020 23.597,292.253 23.352,291.100 23.278 C 290.055 23.211,289.178 22.986,289.150 22.778 C 289.123 22.570,289.078 22.175,289.050 21.900 C 289.020 21.604,288.185 21.319,287.000 21.200 C 285.815 21.081,284.980 20.796,284.950 20.500 C 284.923 20.225,284.877 19.820,284.850 19.600 C 284.822 19.380,283.900 19.200,282.800 19.200 C 281.700 19.200,280.821 19.065,280.847 18.900 C 281.090 17.366,280.816 17.200,278.043 17.200 C 275.437 17.200,275.273 17.146,275.036 16.200 C 274.810 15.301,274.584 15.200,272.792 15.200 C 271.697 15.200,270.821 15.065,270.847 14.900 C 271.083 13.408,270.797 13.235,267.900 13.118 C 265.944 13.038,264.984 12.837,264.950 12.500 C 264.923 12.225,264.877 11.828,264.850 11.618 C 264.822 11.407,263.495 11.182,261.900 11.118 C 259.944 11.038,258.984 10.837,258.950 10.500 C 258.923 10.225,258.877 9.820,258.850 9.600 C 258.820 9.363,257.167 9.200,254.800 9.200 L 250.800 9.200 250.800 8.200 L 250.800 7.200 246.800 7.200 L 242.800 7.200 242.800 6.200 L 242.800 5.200 237.800 5.200 L 232.800 5.200 232.800 4.200 L 232.800 3.200 223.800 3.200 L 214.800 3.200 214.800 2.200 L 214.800 1.200 200.000 1.200 L 185.200 1.200 185.200 2.192 M194.496 161.595 C 194.198 162.073,193.360 162.493,192.400 162.646 C 191.020 162.867,190.086 163.600,191.184 163.600 C 191.396 163.600,191.904 163.960,192.314 164.399 C 193.832 166.029,206.897 166.002,207.324 164.368 C 207.434 163.947,207.937 163.450,208.441 163.263 C 209.217 162.976,209.055 162.884,207.379 162.660 C 206.290 162.515,204.811 162.037,204.090 161.598 C 202.154 160.418,195.232 160.416,194.496 161.595 M196.000 202.000 L 196.000 223.200 199.800 223.200 L 203.600 223.200 203.600 202.000 L 203.600 180.800 199.800 180.800 L 196.000 180.800 196.000 202.000 M156.600 238.800 C 155.892 239.946,157.857 240.000,199.981 240.000 C 244.045 240.000,244.648 239.981,243.306 238.639 C 242.874 238.207,156.868 238.367,156.600 238.800 M152.667 256.862 C 152.519 258.114,152.104 259.263,151.612 259.788 C 151.165 260.263,150.800 260.865,150.800 261.126 C 150.800 261.489,162.333 261.600,200.000 261.600 C 251.720 261.600,250.445 261.644,248.442 259.929 C 248.025 259.572,247.555 258.497,247.397 257.540 C 247.239 256.583,246.928 255.575,246.706 255.300 C 246.387 254.905,236.481 254.800,199.607 254.800 L 152.911 254.800 152.667 256.862 M142.000 282.000 L 142.000 287.200 200.000 287.200 L 258.000 287.200 258.000 282.000 L 258.000 276.800 200.000 276.800 L 142.000 276.800 142.000 282.000 M150.800 303.136 C 150.800 303.763,151.144 304.587,151.564 304.967 C 151.984 305.348,152.433 306.079,152.562 306.592 L 152.796 307.525 160.098 307.317 C 165.328 307.169,167.651 306.952,168.286 306.555 C 169.623 305.717,190.712 305.746,191.824 306.587 C 192.960 307.447,207.091 307.469,208.224 306.613 C 209.353 305.759,228.625 305.719,229.569 306.569 C 230.059 307.010,231.961 307.163,238.101 307.253 C 247.151 307.386,247.123 307.395,247.294 304.192 L 247.400 302.200 199.100 302.098 L 150.800 301.997 150.800 303.136 M172.046 321.344 C 171.726 321.730,169.998 321.960,166.097 322.134 C 156.135 322.579,153.607 322.858,153.082 323.566 C 152.817 323.925,152.150 324.420,151.600 324.667 C 150.650 325.093,150.640 325.131,151.400 325.417 C 151.840 325.583,152.560 326.032,153.000 326.414 C 154.490 327.708,163.011 328.000,199.338 328.000 C 238.411 328.000,244.551 327.752,246.638 326.087 L 247.950 325.040 247.075 324.438 C 246.594 324.107,246.020 323.625,245.800 323.365 C 245.376 322.866,240.847 322.482,230.319 322.055 C 226.131 321.885,223.871 321.633,223.539 321.300 C 222.852 320.612,219.179 320.690,218.224 321.413 C 217.064 322.290,184.936 322.290,183.776 321.413 C 182.696 320.595,172.716 320.537,172.046 321.344 M186.000 350.751 C 186.000 357.331,185.897 358.788,185.400 359.200 C 184.882 359.630,184.800 362.247,184.800 378.249 L 184.800 396.800 199.645 396.800 L 214.491 396.800 214.191 395.500 C 214.027 394.785,213.818 382.635,213.727 368.500 L 213.562 342.800 199.781 342.800 L 186.000 342.800 186.000 350.751 " stroke="none" fill="#fccc54" fill-rule="evenodd"></path><path id="path3" d="M198.400 18.600 C 198.126 18.930,197.543 19.200,197.104 19.200 C 195.967 19.200,193.200 22.087,193.200 23.273 C 193.200 23.805,192.975 24.465,192.700 24.740 C 192.311 25.129,192.156 32.887,192.000 59.720 C 191.807 92.971,191.724 95.196,190.676 95.203 C 190.056 95.208,187.200 97.916,187.200 98.499 C 187.200 98.746,186.795 99.379,186.300 99.906 L 185.400 100.864 185.200 125.045 C 185.001 149.114,184.996 149.229,184.157 149.714 C 180.668 151.728,177.200 154.979,177.200 156.237 C 177.200 156.586,176.795 157.200,176.300 157.600 C 175.453 158.286,175.400 158.626,175.400 163.332 C 175.400 167.969,175.466 168.404,176.300 169.293 C 176.795 169.820,177.200 170.473,177.200 170.744 C 177.200 171.015,177.624 171.660,178.142 172.178 C 178.660 172.696,179.201 173.425,179.344 173.798 C 179.487 174.171,179.963 174.570,180.402 174.685 C 181.188 174.890,181.200 175.250,181.200 199.024 L 181.200 223.155 166.232 223.278 C 151.591 223.397,151.243 223.419,150.332 224.254 C 149.819 224.724,149.012 225.226,148.537 225.369 C 147.580 225.659,143.200 229.906,143.200 230.544 C 143.200 230.767,142.836 231.336,142.391 231.810 C 141.811 232.427,141.512 233.453,141.336 235.435 C 141.201 236.956,140.909 238.430,140.687 238.711 C 140.465 238.992,140.142 241.242,139.970 243.711 C 139.568 249.447,139.241 251.159,138.381 252.019 C 137.999 252.401,137.558 253.652,137.400 254.800 C 137.241 255.956,136.788 257.212,136.385 257.615 C 135.985 258.015,135.535 259.158,135.386 260.154 C 135.145 261.764,134.829 262.203,132.565 264.083 C 131.162 265.247,129.427 267.100,128.708 268.200 L 127.400 270.200 127.275 280.600 C 127.133 292.406,127.297 294.396,128.431 294.692 C 128.854 294.803,129.200 295.160,129.200 295.485 C 129.200 296.414,130.796 298.418,131.857 298.822 C 132.387 299.023,132.933 299.506,133.069 299.894 C 133.206 300.282,133.726 301.152,134.224 301.827 C 134.722 302.502,135.254 303.886,135.406 304.903 C 135.559 305.920,136.010 307.047,136.409 307.408 C 136.818 307.778,137.253 308.932,137.407 310.054 C 137.588 311.364,137.941 312.206,138.441 312.518 C 139.483 313.169,139.470 315.632,138.418 316.584 C 137.983 316.977,137.514 318.098,137.363 319.105 C 137.214 320.102,136.847 321.386,136.548 321.959 C 135.847 323.302,135.843 327.192,136.541 328.211 C 136.838 328.645,137.203 329.781,137.352 330.737 C 137.593 332.291,139.423 335.289,140.607 336.068 C 140.831 336.215,141.594 336.890,142.303 337.568 C 143.013 338.246,143.979 338.800,144.452 338.800 C 145.152 338.800,145.022 338.608,143.756 337.766 C 137.519 333.623,134.980 323.941,138.537 317.871 C 139.749 315.804,139.929 313.448,138.979 312.092 C 138.638 311.604,138.082 310.273,137.743 309.134 C 137.405 307.994,136.892 306.688,136.603 306.231 C 136.315 305.774,135.949 304.770,135.791 304.000 C 135.339 301.798,134.509 300.486,132.140 298.227 C 127.655 293.953,127.528 293.468,127.676 281.255 L 127.800 271.000 129.083 268.800 C 129.938 267.334,131.173 266.014,132.783 264.843 C 134.779 263.391,135.270 262.799,135.601 261.443 C 135.821 260.539,136.361 259.134,136.801 258.321 C 137.240 257.507,137.600 256.510,137.600 256.105 C 137.600 255.700,137.966 254.656,138.414 253.785 C 138.862 252.913,139.428 251.390,139.673 250.400 C 139.917 249.410,140.336 248.150,140.603 247.600 C 140.871 247.049,141.201 243.996,141.339 240.800 C 141.685 232.784,144.125 228.308,149.800 225.282 L 151.800 224.215 166.600 224.008 L 181.400 223.800 181.503 199.451 L 181.606 175.103 179.976 173.421 C 175.986 169.303,174.290 161.570,176.638 158.200 C 177.098 157.540,177.954 156.269,178.540 155.375 C 179.545 153.842,180.119 153.340,184.300 150.348 L 186.000 149.131 186.000 125.602 L 186.000 102.074 187.066 100.018 C 187.653 98.888,188.745 97.476,189.492 96.881 C 190.240 96.287,191.380 95.319,192.026 94.731 L 193.200 93.662 193.210 59.531 C 193.220 22.840,193.218 22.880,195.340 20.930 C 198.701 17.843,205.903 19.515,206.516 23.525 C 206.671 24.542,206.683 24.533,206.740 23.359 C 206.814 21.828,204.923 19.685,203.193 19.339 C 202.547 19.209,201.812 18.855,201.560 18.552 C 200.951 17.818,199.024 17.848,198.400 18.600 M206.813 59.237 L 206.800 93.473 207.700 94.338 C 208.195 94.813,209.448 95.938,210.485 96.838 C 211.521 97.738,212.488 98.862,212.632 99.337 C 212.776 99.812,213.188 100.534,213.547 100.942 C 214.133 101.607,214.212 104.148,214.312 125.516 C 214.396 143.374,214.545 149.493,214.906 149.928 C 215.171 150.248,216.021 150.918,216.794 151.417 C 217.567 151.917,218.785 152.872,219.500 153.540 C 220.215 154.208,220.800 154.564,220.800 154.331 C 220.800 153.800,217.992 151.200,217.418 151.200 C 217.184 151.200,216.768 150.840,216.493 150.400 C 216.218 149.960,215.729 149.600,215.406 149.600 C 214.896 149.600,214.803 146.348,214.709 125.232 L 214.600 100.864 213.700 99.906 C 213.205 99.379,212.800 98.714,212.800 98.428 C 212.800 97.795,210.035 95.200,209.361 95.200 C 208.097 95.200,208.000 92.661,208.000 59.617 C 208.000 31.164,207.918 26.445,207.413 25.776 C 206.895 25.092,206.824 29.046,206.813 59.237 M221.530 156.126 C 222.009 156.635,222.400 157.298,222.400 157.599 C 222.400 157.901,222.784 158.942,223.254 159.912 C 224.237 161.942,224.129 165.694,223.026 167.809 C 222.684 168.464,222.404 169.161,222.402 169.357 C 222.401 169.553,221.569 170.687,220.553 171.876 C 219.537 173.065,218.821 174.155,218.963 174.296 C 219.375 174.708,222.762 170.686,222.782 169.762 C 222.792 169.301,223.160 168.598,223.600 168.200 C 224.295 167.571,224.400 166.968,224.400 163.600 C 224.400 160.232,224.295 159.629,223.600 159.000 C 223.160 158.602,222.800 157.932,222.800 157.512 C 222.800 156.361,222.055 155.200,221.316 155.200 C 220.770 155.200,220.806 155.355,221.530 156.126 M197.500 160.693 C 198.435 160.777,199.965 160.777,200.900 160.693 C 201.835 160.609,201.070 160.540,199.200 160.540 C 197.330 160.540,196.565 160.609,197.500 160.693 M192.118 161.975 L 190.036 163.032 190.918 164.111 C 193.361 167.101,205.591 167.100,208.487 164.109 C 209.719 162.837,209.738 162.775,208.800 163.113 C 208.250 163.311,207.628 163.848,207.418 164.307 C 206.644 165.996,193.874 166.074,192.314 164.399 C 191.904 163.960,191.396 163.600,191.184 163.600 C 190.156 163.600,190.976 162.876,192.236 162.672 C 193.700 162.434,194.800 161.782,194.800 161.151 C 194.800 160.671,194.517 160.758,192.118 161.975 M203.782 161.416 C 204.651 162.074,206.969 162.796,208.200 162.794 C 208.644 162.793,208.047 162.349,206.860 161.796 C 204.373 160.638,202.437 160.399,203.782 161.416 M218.497 198.667 C 218.444 211.904,218.509 223.019,218.643 223.367 C 218.858 223.928,220.497 224.000,232.986 224.000 L 247.087 224.000 249.427 225.180 C 251.878 226.416,255.171 229.340,255.858 230.891 C 256.080 231.391,256.698 232.692,257.231 233.781 C 258.081 235.519,258.225 236.478,258.401 241.581 C 258.576 246.650,258.718 247.606,259.501 248.994 C 259.995 249.871,260.406 250.771,260.413 250.994 C 260.419 251.217,260.868 252.300,261.409 253.400 C 261.950 254.500,262.394 255.643,262.396 255.941 C 262.398 256.239,262.842 257.319,263.382 258.341 C 263.922 259.363,264.459 260.668,264.575 261.241 C 264.691 261.813,265.963 263.459,267.401 264.897 C 268.840 266.336,270.508 268.208,271.108 269.057 L 272.200 270.600 272.318 281.552 L 272.437 292.504 271.342 294.152 C 270.200 295.871,268.334 297.782,265.858 299.770 C 265.056 300.413,264.399 301.223,264.399 301.570 C 264.398 301.916,264.065 302.744,263.659 303.410 C 263.254 304.075,262.688 305.335,262.402 306.210 C 262.116 307.084,261.549 308.427,261.141 309.194 C 260.734 309.961,260.400 310.796,260.400 311.050 C 260.400 311.305,260.045 312.297,259.611 313.256 C 258.972 314.671,258.922 315.076,259.347 315.400 C 262.533 317.831,263.568 327.181,261.156 331.756 C 260.073 333.812,259.155 334.898,256.370 337.422 C 256.023 337.736,255.123 338.200,254.370 338.453 C 253.616 338.706,252.710 339.163,252.356 339.468 C 252.002 339.773,250.922 340.178,249.956 340.367 L 248.200 340.712 250.069 340.756 C 251.520 340.790,252.205 340.576,253.127 339.800 C 253.781 339.250,254.681 338.800,255.129 338.800 C 255.576 338.800,256.296 338.350,256.729 337.800 C 257.161 337.250,257.651 336.800,257.817 336.800 C 258.348 336.800,260.800 334.061,260.800 333.469 C 260.800 333.155,261.205 332.629,261.700 332.300 C 262.571 331.722,262.600 331.496,262.600 325.283 C 262.600 319.177,262.556 318.818,261.700 317.906 C 261.205 317.380,260.800 316.656,260.800 316.298 C 260.800 315.940,260.642 315.549,260.448 315.430 C 259.942 315.117,260.985 310.501,261.753 309.652 C 262.108 309.260,262.557 308.088,262.751 307.048 C 262.946 306.009,263.408 304.936,263.779 304.665 C 264.150 304.394,264.555 303.413,264.679 302.486 C 264.813 301.488,265.117 300.800,265.424 300.800 C 265.709 300.800,266.296 300.350,266.729 299.800 C 267.161 299.250,267.671 298.800,267.861 298.800 C 268.051 298.800,268.835 298.080,269.603 297.201 C 270.372 296.321,271.412 295.134,271.917 294.562 L 272.833 293.523 272.717 281.661 L 272.600 269.800 271.200 268.053 C 270.430 267.093,268.676 265.203,267.303 263.853 C 265.416 262.000,264.805 261.125,264.803 260.274 C 264.800 259.107,264.164 257.585,263.498 257.150 C 263.288 257.013,262.954 256.033,262.756 254.974 C 262.558 253.914,262.037 252.665,261.598 252.198 C 261.159 251.731,260.800 250.879,260.800 250.305 C 260.800 249.731,260.350 248.727,259.800 248.073 C 258.833 246.923,258.800 246.692,258.800 241.016 C 258.800 235.254,258.600 234.143,257.337 232.880 C 257.042 232.584,256.800 231.988,256.800 231.553 C 256.800 231.119,256.376 230.340,255.858 229.822 C 255.340 229.304,254.804 228.588,254.667 228.231 C 254.530 227.874,254.126 227.470,253.769 227.333 C 253.412 227.196,252.696 226.660,252.178 226.142 C 251.660 225.624,251.015 225.200,250.744 225.200 C 250.473 225.200,249.821 224.795,249.294 224.300 C 248.342 223.405,248.250 223.399,233.571 223.273 L 218.806 223.147 218.700 198.873 L 218.594 174.600 218.497 198.667 M195.500 180.676 C 194.844 180.847,194.800 182.201,194.800 201.990 L 194.800 223.122 196.060 223.561 C 197.654 224.117,202.604 224.133,203.626 223.586 C 204.716 223.003,204.854 181.060,203.767 180.643 C 203.053 180.369,196.575 180.395,195.500 180.676 M203.600 202.000 L 203.600 223.200 199.800 223.200 L 196.000 223.200 196.000 202.000 L 196.000 180.800 199.800 180.800 L 203.600 180.800 203.600 202.000 M155.844 238.598 C 155.131 239.138,155.126 239.227,155.753 240.185 L 156.418 241.200 199.818 241.200 L 243.217 241.200 243.667 240.212 C 244.732 237.876,247.184 237.999,199.851 238.013 C 162.972 238.024,156.489 238.110,155.844 238.598 M243.306 238.639 C 244.648 239.981,244.045 240.000,199.981 240.000 C 157.857 240.000,155.892 239.946,156.600 238.800 C 156.868 238.367,242.874 238.207,243.306 238.639 M152.667 254.667 C 152.520 254.813,152.400 255.291,152.400 255.728 C 152.400 256.165,151.941 257.494,151.379 258.681 C 149.419 262.824,143.875 262.400,200.000 262.400 C 255.516 262.400,250.795 262.691,248.848 259.392 C 248.401 258.633,247.839 257.289,247.602 256.406 C 247.364 255.523,246.974 254.800,246.736 254.800 C 246.440 254.800,246.431 254.959,246.706 255.300 C 246.928 255.575,247.239 256.583,247.397 257.540 C 247.555 258.497,248.025 259.572,248.442 259.929 C 250.445 261.644,251.720 261.600,200.000 261.600 C 162.333 261.600,150.800 261.489,150.800 261.126 C 150.800 260.865,151.165 260.263,151.612 259.788 C 152.104 259.263,152.519 258.114,152.667 256.864 L 152.911 254.803 199.356 254.700 L 245.800 254.597 199.367 254.498 C 173.828 254.444,152.813 254.520,152.667 254.667 M141.500 276.676 C 140.271 276.997,140.459 287.015,141.700 287.348 C 142.881 287.664,257.743 287.673,258.567 287.357 C 259.511 286.995,259.511 277.005,258.567 276.643 C 257.843 276.365,142.566 276.397,141.500 276.676 M258.000 282.000 L 258.000 287.200 200.000 287.200 L 142.000 287.200 142.000 282.000 L 142.000 276.800 200.000 276.800 L 258.000 276.800 258.000 282.000 M150.572 301.768 C 150.439 302.301,150.414 303.066,150.518 303.468 C 150.644 303.956,150.723 303.833,150.754 303.098 L 150.800 301.997 199.100 302.098 L 247.400 302.200 247.294 304.192 C 247.123 307.395,247.151 307.386,238.101 307.253 C 231.961 307.163,230.059 307.010,229.569 306.569 C 228.625 305.719,209.353 305.759,208.224 306.613 C 207.091 307.469,192.960 307.447,191.824 306.587 C 190.712 305.746,169.623 305.717,168.286 306.555 C 167.651 306.952,165.328 307.169,160.098 307.317 L 152.796 307.525 152.562 306.592 C 152.310 305.585,150.800 303.985,150.800 304.724 C 150.800 306.288,153.029 308.650,154.204 308.331 C 158.032 307.291,232.678 306.924,242.074 307.898 C 245.780 308.283,247.116 307.926,247.434 306.466 C 247.562 305.880,248.011 304.557,248.433 303.526 C 248.855 302.495,249.200 301.460,249.200 301.226 C 249.200 300.927,234.526 300.800,200.008 300.800 L 150.815 300.800 150.572 301.768 M175.100 320.696 C 176.475 320.774,178.725 320.774,180.100 320.696 C 181.475 320.618,180.350 320.554,177.600 320.554 C 174.850 320.554,173.725 320.618,175.100 320.696 M220.500 320.676 C 220.885 320.776,221.515 320.776,221.900 320.676 C 222.285 320.575,221.970 320.493,221.200 320.493 C 220.430 320.493,220.115 320.575,220.500 320.676 M162.000 321.400 C 161.450 321.714,160.190 321.991,159.200 322.015 C 158.210 322.040,156.590 322.217,155.600 322.409 C 154.140 322.693,154.405 322.726,157.000 322.584 C 158.760 322.487,162.765 322.290,165.900 322.145 C 169.938 321.959,171.731 321.725,172.049 321.341 C 172.716 320.538,163.413 320.592,162.000 321.400 M183.776 321.413 C 184.430 321.907,187.158 322.000,201.000 322.000 C 214.842 322.000,217.570 321.907,218.224 321.413 C 218.910 320.894,216.913 320.825,201.000 320.825 C 185.087 320.825,183.090 320.894,183.776 321.413 M223.539 321.300 C 223.871 321.633,226.131 321.885,230.319 322.055 C 240.847 322.482,245.376 322.866,245.800 323.365 C 246.020 323.625,246.594 324.107,247.075 324.438 L 247.950 325.040 246.638 326.087 C 244.551 327.752,238.411 328.000,199.338 328.000 C 163.011 328.000,154.490 327.708,153.000 326.414 C 152.560 326.032,151.840 325.576,151.400 325.401 C 150.647 325.102,150.661 325.060,151.638 324.686 C 152.210 324.468,152.886 323.954,153.142 323.544 C 153.696 322.657,153.111 322.543,152.400 323.400 C 152.126 323.730,151.673 324.000,151.394 324.000 C 149.958 324.000,150.405 325.436,152.200 326.590 C 155.692 328.835,228.156 330.469,238.200 328.529 C 239.520 328.274,241.799 327.948,243.264 327.805 C 245.395 327.596,246.251 327.295,247.548 326.298 L 249.169 325.053 248.029 324.359 C 247.402 323.978,246.818 323.454,246.732 323.196 C 246.640 322.919,244.631 322.489,241.827 322.145 C 239.216 321.825,236.758 321.392,236.366 321.182 C 235.218 320.567,222.921 320.681,223.539 321.300 M145.698 339.300 C 145.957 340.085,147.666 340.792,149.200 340.748 C 149.973 340.725,150.242 340.628,149.800 340.531 C 148.322 340.206,146.800 339.506,146.800 339.151 C 146.800 338.958,146.515 338.800,146.167 338.800 C 145.818 338.800,145.608 339.025,145.698 339.300 M151.200 341.089 C 151.200 342.213,153.574 342.561,162.300 342.718 L 171.200 342.877 171.200 347.793 C 171.200 351.375,171.038 353.019,170.602 353.854 C 170.113 354.793,169.996 357.271,169.956 367.600 C 169.929 374.530,169.793 383.485,169.653 387.501 C 169.514 391.516,169.535 394.801,169.700 394.801 C 170.053 394.800,169.998 395.297,170.446 388.000 C 170.862 381.227,171.657 343.636,171.400 342.900 C 171.269 342.526,169.480 342.400,164.300 342.400 C 159.241 342.400,156.785 342.232,155.187 341.778 C 151.599 340.758,151.200 340.689,151.200 341.089 M245.800 341.485 C 244.852 342.001,242.917 342.186,236.600 342.369 L 228.600 342.600 228.595 367.700 L 228.591 392.800 228.698 367.834 L 228.806 342.868 237.592 342.734 C 246.083 342.605,246.409 342.570,247.278 341.700 C 248.368 340.610,247.611 340.500,245.800 341.485 M192.874 342.699 C 196.545 342.765,202.665 342.765,206.474 342.699 C 210.283 342.634,207.280 342.580,199.800 342.580 C 192.320 342.579,189.203 342.633,192.874 342.699 M184.800 351.249 C 184.800 358.714,184.870 359.640,185.400 359.200 C 185.897 358.788,186.000 357.331,186.000 350.751 C 186.000 343.950,185.913 342.800,185.400 342.800 C 184.886 342.800,184.800 344.005,184.800 351.249 M213.600 366.784 C 213.600 382.446,213.756 391.814,214.049 393.784 C 214.596 397.466,215.390 397.897,214.999 394.300 C 214.850 392.925,214.650 380.775,214.555 367.300 C 214.445 351.725,214.240 342.800,213.991 342.800 C 213.741 342.800,213.600 351.427,213.600 366.784 M184.584 378.600 C 184.584 388.720,184.636 392.803,184.700 387.673 C 184.763 382.542,184.763 374.262,184.700 369.273 C 184.636 364.283,184.584 368.480,184.584 378.600 " stroke="none" fill="#c49c4c" fill-rule="evenodd"></path><path id="path4" d="M199.400 19.466 C 202.425 19.833,203.259 20.101,204.426 21.083 C 205.113 21.662,205.827 22.509,206.012 22.967 C 206.238 23.525,206.358 23.595,206.375 23.178 C 206.445 21.443,202.658 19.160,199.874 19.260 C 198.603 19.305,198.489 19.355,199.400 19.466 M195.153 21.153 C 194.174 22.132,193.613 23.056,193.634 23.653 C 193.666 24.518,193.698 24.501,194.011 23.457 C 194.455 21.976,195.501 20.823,197.000 20.161 C 197.829 19.795,197.969 19.626,197.453 19.616 C 197.042 19.607,196.007 20.299,195.153 21.153 M206.493 25.600 C 206.493 26.370,206.575 26.685,206.676 26.300 C 206.776 25.915,206.776 25.285,206.676 24.900 C 206.575 24.515,206.493 24.830,206.493 25.600 M193.391 59.000 C 193.391 77.920,193.440 85.601,193.500 76.070 C 193.560 66.538,193.560 51.058,193.500 41.670 C 193.440 32.281,193.391 40.080,193.391 59.000 M192.287 94.632 C 191.750 95.349,191.718 95.530,192.156 95.361 C 192.476 95.239,192.846 94.856,192.978 94.512 C 193.352 93.537,193.069 93.586,192.287 94.632 M206.800 93.908 C 206.800 94.444,207.919 95.600,208.438 95.600 C 208.647 95.600,209.669 96.347,210.709 97.259 C 212.471 98.805,212.464 98.791,210.600 97.053 C 209.500 96.027,208.195 94.802,207.700 94.330 C 207.205 93.859,206.800 93.669,206.800 93.908 M189.087 97.169 C 188.162 98.032,187.494 98.797,187.602 98.869 C 187.711 98.941,188.572 98.235,189.515 97.300 C 191.671 95.163,191.344 95.063,189.087 97.169 M186.679 100.774 C 186.061 101.820,186.000 104.036,186.004 125.462 L 186.007 149.000 184.704 150.152 L 183.400 151.303 184.800 150.301 L 186.200 149.298 186.400 125.310 C 186.564 105.618,186.700 101.202,187.157 100.652 C 187.463 100.283,187.634 99.901,187.536 99.803 C 187.438 99.705,187.052 100.142,186.679 100.774 M213.381 101.687 C 213.915 102.969,214.002 106.359,214.013 126.287 C 214.027 151.635,213.852 149.946,216.642 151.703 C 218.244 152.712,221.667 156.401,222.113 157.600 C 222.303 158.110,222.342 158.104,222.368 157.562 C 222.386 157.211,222.045 156.602,221.610 156.209 C 221.176 155.816,220.728 155.203,220.614 154.847 C 220.501 154.491,219.588 153.570,218.585 152.800 C 217.582 152.030,216.236 150.984,215.593 150.475 L 214.424 149.549 214.312 125.589 C 214.207 103.148,214.154 101.583,213.481 100.914 C 212.790 100.227,212.786 100.256,213.381 101.687 M181.272 152.500 C 179.796 153.669,177.600 156.222,177.600 156.769 C 177.600 156.886,178.145 156.321,178.812 155.512 C 179.478 154.704,180.770 153.403,181.684 152.621 C 183.763 150.842,183.473 150.756,181.272 152.500 M176.653 158.276 C 176.090 159.029,175.876 160.123,175.780 162.737 L 175.653 166.200 175.971 162.915 C 176.159 160.965,176.568 159.203,176.976 158.580 C 177.870 157.216,177.622 156.982,176.653 158.276 M223.000 163.634 C 223.000 168.076,223.516 168.356,223.872 164.107 C 224.046 162.038,223.961 161.080,223.554 160.499 C 223.066 159.802,223.000 160.174,223.000 163.634 M202.900 160.676 C 203.285 160.776,203.915 160.776,204.300 160.676 C 204.685 160.575,204.370 160.493,203.600 160.493 C 202.830 160.493,202.515 160.575,202.900 160.676 M192.068 161.614 C 190.107 162.669,189.969 162.980,191.800 162.221 C 192.680 161.857,193.571 161.388,193.780 161.179 C 194.359 160.602,193.586 160.798,192.068 161.614 M205.704 161.234 C 206.772 161.856,209.200 162.833,209.200 162.641 C 209.200 162.406,205.834 160.797,205.374 160.812 C 205.168 160.819,205.317 161.009,205.704 161.234 M208.175 164.500 L 207.000 165.800 208.300 164.625 C 209.015 163.979,209.600 163.394,209.600 163.325 C 209.600 163.016,209.270 163.288,208.175 164.500 M192.060 165.377 C 193.248 166.640,201.182 167.142,204.800 166.183 C 206.514 165.728,206.646 165.646,205.400 165.811 C 199.677 166.569,196.561 166.451,192.600 165.328 C 192.160 165.203,191.917 165.225,192.060 165.377 M176.003 166.815 C 176.004 167.137,176.363 167.940,176.800 168.600 C 177.819 170.139,177.819 169.799,176.800 167.800 C 176.360 166.937,176.001 166.494,176.003 166.815 M220.481 171.453 C 219.536 172.634,218.844 173.600,218.944 173.600 C 219.231 173.600,222.519 169.583,222.351 169.437 C 222.268 169.366,221.426 170.273,220.481 171.453 M177.612 170.286 C 177.599 170.814,179.769 173.478,180.900 174.323 C 181.551 174.809,181.607 176.533,181.697 199.123 L 181.794 223.400 181.900 199.217 L 182.006 175.034 180.254 173.217 C 179.290 172.218,178.304 171.040,178.063 170.600 C 177.822 170.160,177.619 170.019,177.612 170.286 M195.457 180.348 C 195.048 180.509,196.436 180.565,198.542 180.473 C 200.648 180.381,202.827 180.420,203.385 180.561 L 204.400 180.815 204.400 201.994 C 204.400 226.616,204.946 224.196,199.453 223.907 C 197.664 223.814,195.840 223.613,195.400 223.462 C 194.960 223.311,195.140 223.453,195.800 223.776 C 197.475 224.597,202.740 224.598,203.911 223.777 L 204.800 223.155 204.800 201.991 C 204.800 181.477,204.776 180.815,204.026 180.414 C 203.156 179.948,196.602 179.898,195.457 180.348 M166.600 223.990 C 153.358 224.178,151.696 224.274,150.811 224.900 C 149.600 225.757,149.911 225.807,151.454 225.002 C 152.408 224.505,154.994 224.405,166.876 224.402 C 175.960 224.401,181.243 224.255,181.400 224.000 C 181.536 223.780,181.592 223.641,181.524 223.690 C 181.456 223.740,174.740 223.875,166.600 223.990 M233.000 224.390 C 243.453 224.542,247.639 224.737,248.274 225.100 C 249.670 225.899,249.917 225.672,248.600 224.800 C 247.452 224.040,246.778 224.009,233.000 224.093 L 218.600 224.180 233.000 224.390 M146.470 227.766 C 143.691 230.417,141.577 234.290,141.650 236.600 C 141.698 238.152,141.709 238.139,141.999 236.158 C 142.489 232.815,145.558 228.257,148.600 226.354 C 149.260 225.941,149.562 225.602,149.270 225.601 C 148.979 225.601,147.719 226.575,146.470 227.766 M251.025 226.350 C 252.282 227.117,255.714 230.927,256.113 232.000 C 256.290 232.474,256.343 232.482,256.368 232.039 C 256.438 230.806,251.493 225.597,250.257 225.601 C 250.006 225.602,250.351 225.939,251.025 226.350 M256.401 233.011 C 256.401 233.237,256.690 233.835,257.044 234.341 C 257.397 234.846,257.837 236.551,258.020 238.130 L 258.352 241.000 258.234 238.200 C 258.137 235.887,256.409 230.994,256.401 233.011 M155.861 238.116 C 154.561 239.156,154.487 240.894,155.733 241.132 C 156.432 241.265,156.434 241.224,155.777 240.221 C 154.279 237.935,152.456 238.027,199.851 238.013 C 247.184 237.999,244.732 237.876,243.667 240.212 L 243.217 241.200 199.909 241.298 L 156.600 241.396 199.723 241.500 C 244.682 241.608,244.148 241.628,244.493 239.827 C 245.028 237.027,247.961 237.200,199.974 237.202 L 157.000 237.204 155.861 238.116 M141.346 242.600 C 141.347 244.800,141.414 245.649,141.495 244.487 C 141.576 243.324,141.576 241.524,141.493 240.487 C 141.411 239.449,141.345 240.400,141.346 242.600 M140.400 248.000 C 140.121 248.674,139.986 249.319,140.100 249.433 C 140.214 249.547,140.509 249.062,140.756 248.356 C 141.338 246.686,141.059 246.408,140.400 248.000 M258.401 247.320 C 258.399 247.873,259.650 250.084,259.851 249.882 C 259.957 249.777,259.674 249.085,259.223 248.345 C 258.772 247.605,258.402 247.144,258.401 247.320 M260.040 250.800 C 260.010 251.596,261.555 254.978,261.826 254.708 C 261.942 254.591,261.687 253.799,261.260 252.948 C 260.832 252.097,260.388 251.130,260.273 250.800 C 260.086 250.267,260.061 250.267,260.040 250.800 M138.499 253.554 C 138.005 254.632,137.612 255.848,137.627 256.257 C 137.641 256.666,137.894 256.229,138.188 255.287 C 138.482 254.345,138.937 253.316,139.199 253.001 C 139.461 252.685,139.613 252.240,139.537 252.010 C 139.460 251.781,138.993 252.476,138.499 253.554 M246.292 254.681 C 246.934 254.805,247.302 255.295,247.609 256.433 C 247.843 257.301,248.401 258.633,248.848 259.392 C 249.348 260.239,249.563 261.087,249.404 261.586 C 249.109 262.517,151.123 262.918,150.663 261.990 C 150.552 261.764,150.506 261.810,150.563 262.090 C 150.646 262.499,160.387 262.620,199.918 262.702 L 249.170 262.803 249.631 261.943 C 250.008 261.237,249.911 260.680,249.088 258.841 C 248.536 257.609,247.890 256.105,247.651 255.500 C 247.343 254.718,246.954 254.416,246.309 254.454 L 245.400 254.509 246.292 254.681 M151.501 257.286 C 151.116 258.193,150.889 259.022,150.996 259.129 C 151.244 259.378,152.482 256.439,152.321 255.981 C 152.254 255.792,151.885 256.379,151.501 257.286 M262.402 257.011 C 262.401 257.237,262.689 257.834,263.042 258.339 C 263.395 258.843,263.830 259.738,264.008 260.328 C 264.250 261.132,264.337 261.200,264.353 260.600 C 264.365 260.160,263.932 259.080,263.390 258.200 C 262.848 257.320,262.403 256.785,262.402 257.011 M136.679 258.374 C 136.306 259.006,136.000 259.763,136.000 260.056 C 136.000 260.349,136.371 259.897,136.824 259.051 C 137.790 257.249,137.671 256.694,136.679 258.374 M264.400 262.010 C 264.400 262.283,265.855 263.967,267.634 265.753 C 269.412 267.539,270.676 268.614,270.443 268.143 C 270.209 267.672,269.429 266.796,268.709 266.197 C 267.989 265.598,266.725 264.299,265.900 263.310 C 265.075 262.322,264.400 261.736,264.400 262.010 M135.200 262.743 C 135.200 262.931,134.112 263.876,132.783 264.843 C 130.511 266.495,127.991 269.898,128.005 271.294 C 128.008 271.572,128.503 270.826,129.105 269.635 C 129.866 268.130,131.024 266.792,132.900 265.249 C 135.277 263.294,136.062 262.400,135.400 262.400 C 135.290 262.400,135.200 262.554,135.200 262.743 M127.774 282.000 C 127.774 287.610,127.830 289.905,127.899 287.100 C 127.968 284.295,127.968 279.705,127.899 276.900 C 127.830 274.095,127.774 276.390,127.774 282.000 M141.515 276.328 C 141.138 276.478,167.058 276.550,199.115 276.488 C 231.172 276.427,257.805 276.475,258.300 276.596 C 259.292 276.838,259.750 286.861,258.790 287.337 C 258.565 287.449,258.610 287.494,258.890 287.437 C 259.777 287.259,259.820 277.150,258.936 276.504 C 258.185 275.955,142.891 275.782,141.515 276.328 M171.100 287.900 C 186.995 287.958,213.005 287.958,228.900 287.900 C 244.795 287.842,231.790 287.795,200.000 287.795 C 168.210 287.795,155.205 287.842,171.100 287.900 M272.057 291.200 C 271.975 292.801,270.440 295.254,268.161 297.426 C 267.302 298.245,266.960 298.713,267.400 298.468 C 269.667 297.204,272.513 292.939,272.292 291.138 L 272.128 289.800 272.057 291.200 M128.000 292.689 C 128.000 292.921,128.371 293.536,128.824 294.056 L 129.647 295.000 128.945 293.800 C 128.020 292.221,128.000 292.197,128.000 292.689 M129.600 295.613 C 129.600 295.788,130.455 296.682,131.500 297.599 C 132.545 298.515,133.895 299.998,134.500 300.893 C 135.105 301.788,135.600 302.380,135.600 302.207 C 135.600 301.632,133.852 299.005,133.222 298.633 C 132.880 298.432,131.925 297.598,131.100 296.780 C 130.275 295.963,129.600 295.438,129.600 295.613 M265.071 299.926 C 264.482 300.541,263.999 301.304,263.999 301.622 C 263.998 301.940,263.638 302.789,263.199 303.510 C 262.759 304.230,262.400 305.039,262.400 305.306 C 262.400 305.574,262.850 304.948,263.400 303.915 C 263.950 302.882,264.400 301.773,264.400 301.452 C 264.400 301.130,264.895 300.506,265.499 300.066 C 266.104 299.626,266.496 299.162,266.370 299.037 C 266.244 298.911,265.660 299.311,265.071 299.926 M150.000 302.267 C 150.000 303.981,150.186 303.923,150.533 302.100 C 150.675 301.353,150.614 300.800,150.390 300.800 C 150.175 300.800,150.000 301.460,150.000 302.267 M248.264 303.799 C 247.859 304.780,247.620 305.812,247.732 306.092 C 247.856 306.398,247.949 306.314,247.968 305.880 C 247.986 305.484,248.281 304.617,248.624 303.953 C 248.968 303.289,249.193 302.581,249.124 302.380 C 249.056 302.179,248.669 302.817,248.264 303.799 M136.032 304.811 C 136.014 305.147,136.244 305.777,136.542 306.211 C 136.839 306.645,137.275 307.540,137.510 308.200 C 137.745 308.860,137.949 309.130,137.963 308.800 C 137.978 308.470,137.556 307.300,137.026 306.200 C 136.497 305.100,136.049 304.475,136.032 304.811 M150.809 305.709 C 150.801 305.969,152.815 309.233,152.953 309.183 C 152.979 309.174,153.990 308.919,155.200 308.617 C 156.463 308.302,156.973 308.054,156.397 308.034 C 155.846 308.015,154.818 308.165,154.114 308.367 C 153.064 308.668,152.793 308.614,152.610 308.067 C 152.341 307.262,150.821 305.272,150.809 305.709 M247.200 307.106 C 247.200 307.765,245.685 308.123,243.000 308.101 L 240.600 308.080 242.988 308.397 C 245.871 308.778,248.449 307.915,247.440 306.907 C 247.308 306.775,247.200 306.865,247.200 307.106 M174.125 307.499 C 177.604 307.566,183.184 307.566,186.525 307.499 C 189.866 307.432,187.020 307.378,180.200 307.378 C 173.380 307.378,170.646 307.433,174.125 307.499 M213.524 307.499 C 216.673 307.567,221.713 307.567,224.724 307.499 C 227.736 307.431,225.160 307.376,219.000 307.376 C 212.840 307.376,210.376 307.432,213.524 307.499 M160.915 307.896 C 162.188 307.976,164.168 307.975,165.315 307.894 C 166.462 307.814,165.420 307.749,163.000 307.750 C 160.580 307.751,159.642 307.816,160.915 307.896 M196.300 307.898 C 198.335 307.971,201.665 307.971,203.700 307.898 C 205.735 307.825,204.070 307.766,200.000 307.766 C 195.930 307.766,194.265 307.825,196.300 307.898 M232.700 307.896 C 234.075 307.974,236.325 307.974,237.700 307.896 C 239.075 307.818,237.950 307.754,235.200 307.754 C 232.450 307.754,231.325 307.818,232.700 307.896 M138.003 310.015 C 138.004 310.337,138.363 311.140,138.800 311.800 C 139.819 313.339,139.819 312.999,138.800 311.000 C 138.360 310.137,138.001 309.694,138.003 310.015 M259.500 312.511 C 258.538 314.844,258.632 315.410,259.620 313.232 C 260.061 312.260,260.372 311.318,260.311 311.139 C 260.250 310.960,259.885 311.578,259.500 312.511 M139.701 314.600 C 139.705 315.480,139.787 315.793,139.883 315.295 C 139.979 314.798,139.975 314.078,139.875 313.695 C 139.775 313.313,139.696 313.720,139.701 314.600 M259.276 315.883 C 260.237 316.975,261.706 320.032,262.024 321.600 C 262.293 322.926,262.310 322.938,262.354 321.841 C 262.408 320.489,260.105 315.726,259.237 315.393 C 258.744 315.204,258.751 315.286,259.276 315.883 M138.471 317.959 C 137.992 318.811,137.608 319.844,137.618 320.254 C 137.627 320.665,137.877 320.323,138.172 319.496 C 138.467 318.669,138.935 317.720,139.211 317.387 C 139.488 317.053,139.630 316.697,139.528 316.595 C 139.426 316.493,138.950 317.106,138.471 317.959 M182.900 320.676 C 183.285 320.776,183.915 320.776,184.300 320.676 C 184.685 320.575,184.370 320.493,183.600 320.493 C 182.830 320.493,182.515 320.575,182.900 320.676 M217.905 320.683 C 218.402 320.779,219.122 320.775,219.505 320.675 C 219.887 320.575,219.480 320.496,218.600 320.501 C 217.720 320.505,217.407 320.587,217.905 320.683 M222.900 320.676 C 223.285 320.776,223.915 320.776,224.300 320.676 C 224.685 320.575,224.370 320.493,223.600 320.493 C 222.830 320.493,222.515 320.575,222.900 320.676 M159.626 321.254 C 158.430 321.452,157.365 321.701,157.259 321.807 C 156.784 322.282,161.106 321.911,162.000 321.400 C 163.123 320.758,162.753 320.735,159.626 321.254 M236.426 321.190 C 237.028 321.543,243.139 322.441,244.390 322.361 C 245.138 322.313,237.717 320.865,236.600 320.841 C 235.929 320.827,235.901 320.883,236.426 321.190 M137.346 325.000 C 137.347 327.200,137.414 328.049,137.495 326.887 C 137.576 325.724,137.576 323.924,137.493 322.887 C 137.411 321.849,137.345 322.800,137.346 325.000 M154.900 322.276 C 155.285 322.376,155.915 322.376,156.300 322.276 C 156.685 322.175,156.370 322.093,155.600 322.093 C 154.830 322.093,154.515 322.175,154.900 322.276 M151.944 323.187 C 151.425 323.619,151.214 323.979,151.476 323.987 C 151.738 323.994,152.072 323.807,152.217 323.572 C 152.363 323.337,152.868 322.988,153.341 322.797 C 153.957 322.549,154.015 322.444,153.544 322.425 C 153.184 322.411,152.464 322.754,151.944 323.187 M246.800 323.189 C 246.800 323.421,247.333 323.936,247.985 324.332 L 249.169 325.053 247.512 326.326 C 246.600 327.027,246.022 327.593,246.227 327.585 C 246.432 327.577,247.275 326.992,248.100 326.285 L 249.600 325.000 248.200 323.883 C 247.430 323.269,246.800 322.956,246.800 323.189 M151.800 326.800 C 152.460 327.237,153.180 327.595,153.400 327.595 C 153.620 327.595,153.260 327.237,152.600 326.800 C 151.940 326.363,151.220 326.005,151.000 326.005 C 150.780 326.005,151.140 326.363,151.800 326.800 M262.060 328.200 C 261.980 329.798,260.098 333.288,258.268 335.231 C 256.459 337.152,256.706 337.321,258.581 335.446 C 260.462 333.564,262.501 329.537,262.289 328.123 L 262.120 327.000 262.060 328.200 M154.500 327.876 C 154.885 327.976,155.515 327.976,155.900 327.876 C 156.285 327.775,155.970 327.693,155.200 327.693 C 154.430 327.693,154.115 327.775,154.500 327.876 M157.800 328.379 C 159.416 328.834,163.617 329.227,162.600 328.828 C 162.160 328.655,160.630 328.407,159.200 328.277 C 157.483 328.121,157.008 328.155,157.800 328.379 M238.000 328.514 C 236.876 328.772,222.539 329.019,199.800 329.172 L 163.400 329.417 199.800 329.368 C 230.411 329.328,236.773 329.223,239.800 328.710 C 242.493 328.254,242.947 328.100,241.600 328.100 C 240.610 328.100,238.990 328.286,238.000 328.514 M137.780 330.254 C 138.191 333.093,143.698 338.839,145.956 338.784 C 146.310 338.776,146.008 338.512,145.285 338.197 C 142.695 337.072,138.881 332.851,137.963 330.094 C 137.606 329.022,137.603 329.025,137.780 330.254 M255.256 337.634 C 254.736 338.055,254.477 338.400,254.679 338.400 C 255.215 338.400,256.634 337.300,256.399 337.067 C 256.290 336.958,255.775 337.213,255.256 337.634 M146.800 339.129 C 146.800 339.641,149.037 340.529,149.680 340.272 C 149.977 340.153,149.852 340.050,149.389 340.032 C 148.943 340.014,148.178 339.720,147.689 339.377 C 147.200 339.035,146.800 338.923,146.800 339.129 M153.800 341.414 C 154.460 341.717,155.360 341.965,155.800 341.966 C 156.348 341.968,156.177 341.785,155.254 341.384 C 153.539 340.640,152.170 340.668,153.800 341.414 M245.171 341.192 C 244.825 341.395,242.935 341.740,240.971 341.959 L 237.400 342.357 241.161 342.160 C 244.179 342.001,248.736 340.843,246.400 340.828 C 246.070 340.826,245.517 340.990,245.171 341.192 M157.891 342.289 C 158.601 342.377,159.861 342.379,160.691 342.292 C 161.521 342.205,160.940 342.133,159.400 342.131 C 157.860 342.129,157.181 342.200,157.891 342.289 M171.598 347.519 L 171.796 352.600 171.911 347.833 C 171.975 345.212,171.886 342.925,171.713 342.752 C 171.541 342.579,171.489 344.724,171.598 347.519 M228.183 342.900 C 228.078 343.175,228.039 353.030,228.096 364.800 L 228.200 386.200 228.400 364.300 C 228.510 352.255,228.549 342.400,228.487 342.400 C 228.426 342.400,228.289 342.625,228.183 342.900 M214.516 366.800 C 214.483 380.110,214.579 391.309,214.728 391.687 C 214.976 392.314,214.947 361.518,214.686 348.200 C 214.626 345.120,214.549 353.490,214.516 366.800 M171.295 367.040 C 171.243 374.762,171.033 381.602,170.829 382.240 C 170.340 383.773,170.011 394.800,170.455 394.800 C 170.645 394.800,170.800 392.217,170.800 389.060 C 170.800 385.903,170.982 382.796,171.205 382.157 C 171.458 381.432,171.569 375.717,171.500 366.997 L 171.389 353.000 171.295 367.040 M184.501 359.000 C 184.505 359.880,184.587 360.193,184.683 359.695 C 184.779 359.198,184.775 358.478,184.675 358.095 C 184.575 357.713,184.496 358.120,184.501 359.000 M184.154 392.000 C 184.154 394.750,184.218 395.875,184.296 394.500 C 184.374 393.125,184.374 390.875,184.296 389.500 C 184.218 388.125,184.154 389.250,184.154 392.000 M215.314 394.600 C 215.317 395.700,215.395 396.103,215.487 395.495 C 215.579 394.886,215.577 393.986,215.482 393.495 C 215.387 393.003,215.311 393.500,215.314 394.600 " stroke="none" fill="#ac8c42" fill-rule="evenodd"></path></g></svg>